<svg xmlns="http://www.w3.org/2000/svg" width="24" height="24" viewBox="0 0 24 24" fill="none">
  <style type="text/css" id="current-color-scheme">.ColorScheme-Text { color: #232629; }</style>
  <g transform="translate(1,1)">
    <path fill-rule="evenodd" clip-rule="evenodd" d="M3.99615 13.3658C3.476 13.6341 2.80986 13.75 2 13.75V12.25C2.69014 12.25 3.0865 12.1472 3.30854 12.0327C3.50011 11.9339 3.5827 11.8177 3.63224 11.6691C3.69311 11.4865 3.71077 11.2254 3.67852 10.8492C3.6557 10.5829 3.61462 10.3148 3.56889 10.0163C3.54895 9.8861 3.52812 9.75016 3.50754 9.60607C3.38708 8.76285 3.25577 7.58907 3.92095 6.65782C4.61168 5.6908 5.94344 5.25 8 5.25V6.75C6.05656 6.75 5.38832 7.1842 5.14155 7.52968C4.86923 7.91093 4.86292 8.48715 4.99246 9.39393C5.008 9.50268 5.02564 9.61794 5.04386 9.73693C5.09273 10.0561 5.1457 10.4021 5.17304 10.7211C5.21111 11.1652 5.21314 11.6698 5.05526 12.1434C4.88605 12.6511 4.54676 13.0818 3.99615 13.3658Z" fill="currentColor" class="ColorScheme-Text"/>
    <path fill-rule="evenodd" clip-rule="evenodd" d="M3.99615 12.6342C3.476 12.3659 2.80986 12.25 2 12.25V13.75C2.69014 13.75 3.0865 13.8528 3.30854 13.9673C3.50011 14.0661 3.5827 14.1823 3.63224 14.3309C3.69311 14.5135 3.71077 14.7746 3.67852 15.1508C3.6557 15.4171 3.61462 15.6852 3.56889 15.9837C3.54895 16.1139 3.52812 16.2498 3.50754 16.3939C3.38708 17.2372 3.25577 18.4109 3.92095 19.3422C4.61168 20.3092 5.94344 20.75 8 20.75V19.25C6.05656 19.25 5.38832 18.8158 5.14155 18.4703C4.86923 18.0891 4.86292 17.5128 4.99246 16.6061C5.008 16.4973 5.02564 16.3821 5.04386 16.2631C5.09273 15.9439 5.1457 15.5979 5.17304 15.2789C5.21111 14.8348 5.21314 14.3302 5.05526 13.8566C4.88605 13.3489 4.54676 12.9182 3.99615 12.6342Z" fill="currentColor" class="ColorScheme-Text"/>
    <path fill-rule="evenodd" clip-rule="evenodd" d="M18.0039 13.3658C18.524 13.6341 19.1901 13.75 20 13.75V12.25C19.3099 12.25 18.9135 12.1472 18.6915 12.0327C18.4999 11.9338 18.4173 11.8177 18.3678 11.6691C18.3069 11.4865 18.2892 11.2254 18.3215 10.8492C18.3443 10.5829 18.3854 10.3148 18.4311 10.0163C18.4511 9.8861 18.4719 9.75016 18.4925 9.60607C18.6129 8.76285 18.7442 7.58907 18.0791 6.65782C17.3883 5.6908 16.0566 5.25 14 5.25V6.75C15.9434 6.75 16.6117 7.1842 16.8584 7.52968C17.1308 7.91093 17.1371 8.48715 17.0075 9.39393C16.992 9.50268 16.9744 9.61794 16.9561 9.73693C16.9073 10.0561 16.8543 10.4021 16.827 10.7211C16.7889 11.1652 16.7869 11.6698 16.9447 12.1434C17.1139 12.6511 17.4532 13.0818 18.0039 13.3658Z" fill="currentColor" class="ColorScheme-Text"/>
    <path fill-rule="evenodd" clip-rule="evenodd" d="M18.0039 12.6342C18.524 12.3659 19.1901 12.25 20 12.25V13.75C19.3099 13.75 18.9135 13.8528 18.6915 13.9673C18.4999 14.0662 18.4173 14.1823 18.3678 14.3309C18.3069 14.5135 18.2892 14.7746 18.3215 15.1508C18.3443 15.4171 18.3854 15.6852 18.4311 15.9837C18.4511 16.1139 18.4719 16.2498 18.4925 16.3939C18.6129 17.2372 18.7442 18.4109 18.0791 19.3422C17.3883 20.3092 16.0566 20.75 14 20.75V19.25C15.9434 19.25 16.6117 18.8158 16.8584 18.4703C17.1308 18.0891 17.1371 17.5128 17.0075 16.6061C16.992 16.4973 16.9744 16.3821 16.9561 16.2631C16.9073 15.9439 16.8543 15.5979 16.827 15.2789C16.7889 14.8348 16.7869 14.3302 16.9447 13.8566C17.1139 13.3489 17.4532 12.9182 18.0039 12.6342Z" fill="currentColor" class="ColorScheme-Text"/>
    <path d="M10 4L11.5 2L13 4H11.5H10Z" fill="#3DAEE9"/>
    <path fill-rule="evenodd" clip-rule="evenodd" d="M11.5 0.75L14.5 4.75H12.25V10.9783C12.3327 12.4256 12.2173 14.5322 11.4783 15.9577C11.0959 16.6954 10.4852 17.3615 9.55164 17.5357C8.6432 17.7052 7.64334 17.3658 6.5699 16.6144L7.43009 15.3856C8.35666 16.0342 8.94013 16.1239 9.27648 16.0612C9.58776 16.0031 9.88326 15.7754 10.1466 15.2673C10.6955 14.2085 10.8328 12.4295 10.7513 11.044L10.75 11.022V4.75H8.5L11.5 0.75Z" fill="#3DAEE9"/>
  </g>
</svg>
