<?xml version="1.0" encoding="UTF-8" standalone="no"?>
<svg
   xmlns:dc="http://purl.org/dc/elements/1.1/"
   xmlns:cc="http://creativecommons.org/ns#"
   xmlns:rdf="http://www.w3.org/1999/02/22-rdf-syntax-ns#"
   xmlns:svg="http://www.w3.org/2000/svg"
   xmlns="http://www.w3.org/2000/svg"
   xmlns:sodipodi="http://sodipodi.sourceforge.net/DTD/sodipodi-0.dtd"
   xmlns:inkscape="http://www.inkscape.org/namespaces/inkscape"
   viewBox="0 0 32 32"
   version="1.1"
   id="svg6"
   sodipodi:docname="system-shutdown.svg"
   inkscape:version="0.92.4 (5da689c313, 2019-01-14)">
  <metadata
     id="metadata10">
    <rdf:RDF>
      <cc:Work
         rdf:about="">
        <dc:format>image/svg+xml</dc:format>
        <dc:type
           rdf:resource="http://purl.org/dc/dcmitype/StillImage" />
      </cc:Work>
    </rdf:RDF>
  </metadata>
  <sodipodi:namedview
     pagecolor="#ffffff"
     bordercolor="#666666"
     borderopacity="1"
     objecttolerance="10"
     gridtolerance="10"
     guidetolerance="10"
     inkscape:pageopacity="0"
     inkscape:pageshadow="2"
     inkscape:window-width="1280"
     inkscape:window-height="978"
     id="namedview8"
     showgrid="false"
     inkscape:zoom="21.493729"
     inkscape:cx="10.841602"
     inkscape:cy="15.01671"
     inkscape:window-x="0"
     inkscape:window-y="0"
     inkscape:window-maximized="1"
     inkscape:current-layer="svg6" />
  <defs
     id="defs3051">
    <style
       type="text/css"
       id="current-color-scheme">
      .ColorScheme-Text {
        color:#eff0f1;
      }
      </style>
  </defs>
  <path
     style="color:#eff0f1;fill:#800000;fill-opacity:1;stroke:none"
     d="M 15,4 V 4.05078 5.054686 13 h 2 V 5.050781 4.046875 4 h -1 z m 3,0.169922 V 5.591 C 22.963705,6.7205624 26.484078,10.773948 26.6,16 26.19486,22.190886 21.612593,26.732154 16,26.6 10.240993,26.464399 5.7057812,22.075132 5.4,16 5.6847547,10.69852 9.124358,6.5529048 14,5.589 V 4.181641 C 8.2314026,5.1567079 4.0067289,10.149579 4,16 4,22.627417 9.372583,28 16,28 22.627417,28 28,22.627417 28,16 27.998984,10.145149 23.772961,5.1457305 18,4.169922 Z"
     class="ColorScheme-Text"
     id="path4"
     inkscape:connector-curvature="0"
     sodipodi:nodetypes="cccccccccccccsccccscc" />
</svg>
