<?xml version="1.0" encoding="UTF-8" standalone="no"?>
<svg
   xmlns:dc="http://purl.org/dc/elements/1.1/"
   xmlns:cc="http://creativecommons.org/ns#"
   xmlns:rdf="http://www.w3.org/1999/02/22-rdf-syntax-ns#"
   xmlns:svg="http://www.w3.org/2000/svg"
   xmlns="http://www.w3.org/2000/svg"
   xmlns:sodipodi="http://sodipodi.sourceforge.net/DTD/sodipodi-0.dtd"
   xmlns:inkscape="http://www.inkscape.org/namespaces/inkscape"
   width="700pt"
   height="700pt"
   version="1.1"
   viewBox="0 100 500 500"
   id="svg18"
   sodipodi:docname="assembly.svg"
   inkscape:version="1.0.1 (3bc2e813f5, 2020-09-07)">
  <metadata
     id="metadata24">
    <rdf:RDF>
      <cc:Work
         rdf:about="">
        <dc:format>image/svg+xml</dc:format>
        <dc:type
           rdf:resource="http://purl.org/dc/dcmitype/StillImage" />
        <dc:title></dc:title>
      </cc:Work>
    </rdf:RDF>
  </metadata>
  <defs
     id="defs22" />
  <sodipodi:namedview
     pagecolor="#ffffff"
     bordercolor="#666666"
     borderopacity="1"
     objecttolerance="10"
     gridtolerance="10"
     guidetolerance="10"
     inkscape:pageopacity="0"
     inkscape:pageshadow="2"
     inkscape:window-width="1217"
     inkscape:window-height="1115"
     id="namedview20"
     showgrid="false"
     viewbox-x="0"
     viewbox-y="50"
     inkscape:zoom="0.54"
     inkscape:cx="396.25981"
     inkscape:cy="489.17535"
     inkscape:window-x="370"
     inkscape:window-y="121"
     inkscape:window-maximized="0"
     inkscape:current-layer="svg18" />
  <g
     id="g16"
     transform="matrix(1.5421809,0,0,1.4170427,-291.1467,-46.182254)">
    <path
       d="m 317.25,363.99 h -14.418 l -5.7266,-14.906 h -26.227 l -5.4062,14.906 h -14.051 l 25.555,-65.602 h 14.008 l 26.273,65.602 z m -24.395,-25.949 -9.043,-24.348 -8.8594,24.348 z m 28.059,4.6133 12.891,-1.2695 c 0.76562,4.3359 2.3359,7.5156 4.7188,9.5469 2.3672,2.0156 5.5586,3.0391 9.5938,3.0391 4.2617,0 7.4844,-0.90234 9.6367,-2.7188 2.168,-1.8008 3.2539,-3.9102 3.2539,-6.3242 0,-1.5586 -0.45703,-2.8711 -1.375,-3.957 -0.90234,-1.1016 -2.4883,-2.0469 -4.7656,-2.8398 -1.543,-0.55078 -5.0859,-1.4961 -10.602,-2.8711 -7.1016,-1.7578 -12.082,-3.9258 -14.938,-6.4922 -4.0312,-3.6055 -6.0469,-8.0039 -6.0469,-13.195 0,-3.3438 0.94531,-6.4609 2.8398,-9.3789 1.8945,-2.9023 4.6289,-5.1172 8.1875,-6.6445 3.5742,-1.5117 7.8672,-2.2773 12.906,-2.2773 8.25,0 14.434,1.8008 18.605,5.4062 4.1562,3.6211 6.3398,8.4297 6.5508,14.465 l -13.242,0.58203 c -0.56641,-3.375 -1.7852,-5.8047 -3.6523,-7.2695 -1.8633,-1.4805 -4.6602,-2.2148 -8.3867,-2.2148 -3.8477,0 -6.875,0.77734 -9.043,2.3672 -1.4062,1.0078 -2.1094,2.3672 -2.1094,4.0625 0,1.5586 0.65625,2.8867 1.9688,3.9883 1.6641,1.4062 5.7266,2.8711 12.172,4.3828 6.4453,1.5273 11.211,3.1016 14.297,4.7188 3.0859,1.6328 5.5,3.8477 7.2539,6.6758 1.7422,2.8242 2.6133,6.3086 2.6133,10.449 0,3.7578 -1.0391,7.2852 -3.1328,10.555 -2.0938,3.2852 -5.0391,5.7266 -8.8594,7.3164 -3.8203,1.6055 -8.5859,2.3984 -14.281,2.3984 -8.293,0 -14.664,-1.9102 -19.109,-5.7422 -4.4453,-3.832 -7.1016,-9.4258 -7.957,-16.754 z m 64.305,21.34 v -65.602 h 19.824 l 11.898,44.754 11.762,-44.754 h 19.871 v 65.602 h -12.297 v -51.641 l -13.027,51.641 h -12.754 l -12.984,-51.641 v 51.641 h -12.297 z"
       id="path2" />
    <path
       d="m 225.52,262.58 c 0,2.8555 2.3164,5.168 5.168,5.168 2.8555,0 5.168,-2.3164 5.168,-5.168 V 117.17 h 181.02 l 47.266,47.266 v 98.145 c 0,2.8555 2.3164,5.168 5.168,5.168 2.8555,0 5.168,-2.3164 5.168,-5.168 v -100.29 c 0,-1.3242 -0.50391,-2.6445 -1.5156,-3.6562 l -50.273,-50.273 c -0.9375,-0.94922 -2.2383,-1.5352 -3.6758,-1.5352 h -188.33 c -2.8555,0 -5.168,2.3164 -5.168,5.168 v 150.58 z m 248.96,137.27 c 0,-2.8555 -2.3164,-5.168 -5.168,-5.168 -2.8555,0 -5.168,2.3164 -5.168,5.168 v 42.984 H 235.854 V 399.85 c 0,-2.8555 -2.3164,-5.168 -5.168,-5.168 -2.8555,0 -5.168,2.3164 -5.168,5.168 v 48.152 c 0,2.8555 2.3164,5.168 5.168,5.168 h 238.62 c 2.8555,0 5.168,-2.3164 5.168,-5.168 V 399.85 Z"
       id="path4" />
    <path
       d="m 424.19,112 c 0,-2.8555 -2.3164,-5.168 -5.168,-5.168 -2.8555,0 -5.168,2.3164 -5.168,5.168 v 25.148 c 0,8.3438 3.4102,15.922 8.9023,21.414 5.4922,5.4922 13.074,8.9023 21.414,8.9023 h 25.148 c 2.8555,0 5.168,-2.3164 5.168,-5.168 0,-2.8555 -2.3164,-5.168 -5.168,-5.168 h -25.148 c -5.4883,0 -10.48,-2.25 -14.105,-5.8711 -3.6211,-3.625 -5.8711,-8.6172 -5.8711,-14.105 v -25.148 z"
       id="path6" />
    <path
       d="m 202.15,394.68 h 295.7 V 267.75 h -295.7 z m 300.87,10.34 H 196.98 c -2.8555,0 -5.168,-2.3164 -5.168,-5.168 v -137.27 c 0,-2.8555 2.3164,-5.168 5.168,-5.168 h 306.04 c 2.8555,0 5.168,2.3164 5.168,5.168 v 137.27 c 0,2.8555 -2.3164,5.168 -5.168,5.168 z"
       id="path8" />
    <path
       d="m 271.59,166.08 c -2.8555,0 -5.168,2.3164 -5.168,5.168 0,2.8555 2.3164,5.168 5.168,5.168 h 111.38 c 2.8555,0 5.168,-2.3164 5.168,-5.168 0,-2.8555 -2.3164,-5.168 -5.168,-5.168 z"
       id="path10" />
    <path
       d="m 271.59,194.59 c -2.8555,0 -5.168,2.3164 -5.168,5.168 0,2.8555 2.3164,5.168 5.168,5.168 h 156.82 c 2.8555,0 5.168,-2.3164 5.168,-5.168 0,-2.8555 -2.3164,-5.168 -5.168,-5.168 z"
       id="path12" />
    <path
       d="m 271.59,223.11 c -2.8555,0 -5.168,2.3164 -5.168,5.168 0,2.8555 2.3164,5.168 5.168,5.168 h 156.82 c 2.8555,0 5.168,-2.3164 5.168,-5.168 0,-2.8555 -2.3164,-5.168 -5.168,-5.168 z"
       id="path14" />
  </g>
</svg>
