<?xml version="1.0" encoding="UTF-8"?>
<svg width="700pt" height="700pt" version="1.1" viewBox="0 0 675 675" xmlns="http://www.w3.org/2000/svg" xmlns:xlink="http://www.w3.org/1999/xlink">
 <defs>
  <symbol id="i" overflow="visible">
   <path d="m37.516-2.25c-1.9297 1.0117-3.9453 1.7734-6.0469 2.2812-2.0938 0.50781-4.2812 0.76562-6.5625 0.76562-6.793 0-12.18-1.8984-16.156-5.7031-3.9688-3.8008-5.9531-8.957-5.9531-15.469 0-6.5195 1.9844-11.68 5.9531-15.484 3.9766-3.8008 9.3633-5.7031 16.156-5.7031 2.2812 0 4.4688 0.25781 6.5625 0.76562 2.1016 0.51172 4.1172 1.2656 6.0469 2.2656v8.4531c-1.9492-1.332-3.8711-2.3047-5.7656-2.9219-1.8984-0.625-3.8906-0.9375-5.9844-0.9375-3.7617 0-6.7188 1.2031-8.875 3.6094-2.1484 2.4062-3.2188 5.7266-3.2188 9.9531 0 4.2109 1.0703 7.5156 3.2188 9.9219 2.1562 2.4062 5.1133 3.6094 8.875 3.6094 2.0938 0 4.0859-0.30469 5.9844-0.92188 1.8945-0.625 3.8164-1.5977 5.7656-2.9219z"/>
  </symbol>
  <symbol id="e" overflow="visible">
   <path d="m27.453-22.281c-0.85547-0.40625-1.7109-0.70312-2.5625-0.89062-0.84375-0.19531-1.6953-0.29688-2.5469-0.29688-2.5234 0-4.4609 0.80859-5.8125 2.4219-1.3555 1.6172-2.0312 3.9297-2.0312 6.9375v14.109h-9.7969v-30.625h9.7969v5.0312c1.25-2.0078 2.6914-3.4727 4.3281-4.3906 1.6328-0.91406 3.5859-1.375 5.8594-1.375 0.33203 0 0.6875 0.015625 1.0625 0.046875 0.38281 0.023438 0.94141 0.078125 1.6719 0.17188z"/>
  </symbol>
  <symbol id="a" overflow="visible">
   <path d="m35.281-15.391v2.7812h-22.891c0.23828 2.3047 1.0664 4.0273 2.4844 5.1719 1.4258 1.1484 3.4141 1.7188 5.9688 1.7188 2.0508 0 4.1562-0.30078 6.3125-0.90625 2.1641-0.61328 4.3906-1.5391 6.6719-2.7812v7.5469c-2.3125 0.875-4.6328 1.5391-6.9531 1.9844-2.3125 0.44531-4.625 0.67188-6.9375 0.67188-5.543 0-9.8516-1.4062-12.922-4.2188-3.0742-2.8203-4.6094-6.7734-4.6094-11.859 0-5 1.5039-8.9258 4.5156-11.781 3.0195-2.8633 7.1758-4.2969 12.469-4.2969 4.8125 0 8.6602 1.4492 11.547 4.3438 2.8945 2.8984 4.3438 6.7734 4.3438 11.625zm-10.062-3.2656c0-1.8516-0.54688-3.3477-1.6406-4.4844-1.0859-1.1445-2.5-1.7188-4.25-1.7188-1.8984 0-3.4375 0.53906-4.625 1.6094-1.1797 1.0625-1.9141 2.5938-2.2031 4.5938z"/>
  </symbol>
  <symbol id="d" overflow="visible">
   <path d="m18.438-13.781c-2.043 0-3.5781 0.35156-4.6094 1.0469-1.0312 0.6875-1.5469 1.7031-1.5469 3.0469 0 1.2422 0.41016 2.2148 1.2344 2.9219 0.83203 0.69922 1.9883 1.0469 3.4688 1.0469 1.8438 0 3.3906-0.66016 4.6406-1.9844 1.2578-1.3203 1.8906-2.9727 1.8906-4.9531v-1.125zm14.953-3.6875v17.469h-9.875v-4.5469c-1.3125 1.8672-2.793 3.2266-4.4375 4.0781-1.6367 0.84375-3.6328 1.2656-5.9844 1.2656-3.168 0-5.7422-0.92578-7.7188-2.7812-1.9805-1.8516-2.9688-4.2539-2.9688-7.2031 0-3.5938 1.2344-6.2266 3.7031-7.9062 2.4688-1.6758 6.3477-2.5156 11.641-2.5156h5.7656v-0.76562c0-1.5508-0.60938-2.6875-1.8281-3.4062s-3.125-1.0781-5.7188-1.0781c-2.0938 0-4.0469 0.21484-5.8594 0.64062-1.8047 0.41797-3.4766 1.043-5.0156 1.875v-7.4688c2.0938-0.50781 4.1953-0.89453 6.3125-1.1562 2.1133-0.25781 4.2266-0.39062 6.3438-0.39062 5.5195 0 9.5039 1.0898 11.953 3.2656 2.457 2.1797 3.6875 5.7188 3.6875 10.625z"/>
  </symbol>
  <symbol id="h" overflow="visible">
   <path d="m15.391-39.328v8.7031h10.094v7h-10.094v12.984c0 1.4297 0.28125 2.3906 0.84375 2.8906 0.57031 0.5 1.6953 0.75 3.375 0.75h5.0312v7h-8.3906c-3.8672 0-6.6055-0.80469-8.2188-2.4219-1.6172-1.6133-2.4219-4.3516-2.4219-8.2188v-12.984h-4.875v-7h4.875v-8.7031z"/>
  </symbol>
  <symbol id="c" overflow="visible">
   <path d="m25.547-26.141v-16.406h9.8438v42.547h-9.8438v-4.4375c-1.3555 1.8125-2.8438 3.1406-4.4688 3.9844-1.6172 0.83203-3.4922 1.25-5.625 1.25-3.7734 0-6.8711-1.5-9.2969-4.5-2.4297-3-3.6406-6.8594-3.6406-11.578 0-4.7266 1.2109-8.5859 3.6406-11.578 2.4258-3 5.5234-4.5 9.2969-4.5 2.1133 0 3.9844 0.42188 5.6094 1.2656 1.6328 0.84375 3.1289 2.1641 4.4844 3.9531zm-6.4531 19.828c2.0938 0 3.6914-0.76562 4.7969-2.2969 1.1016-1.5312 1.6562-3.7539 1.6562-6.6719 0-2.9141-0.55469-5.1406-1.6562-6.6719-1.1055-1.5312-2.7031-2.2969-4.7969-2.2969-2.0859 0-3.6797 0.76562-4.7812 2.2969-1.1055 1.5312-1.6562 3.7578-1.6562 6.6719 0 2.918 0.55078 5.1406 1.6562 6.6719 1.1016 1.5312 2.6953 2.2969 4.7812 2.2969z"/>
  </symbol>
  <symbol id="g" overflow="visible">
   <path d="m21-6.3125c2.0938 0 3.6914-0.76562 4.7969-2.2969 1.1016-1.5312 1.6562-3.7539 1.6562-6.6719 0-2.9141-0.55469-5.1406-1.6562-6.6719-1.1055-1.5312-2.7031-2.2969-4.7969-2.2969s-3.7031 0.77344-4.8281 2.3125c-1.1172 1.5312-1.6719 3.75-1.6719 6.6562 0 2.8984 0.55469 5.1172 1.6719 6.6562 1.125 1.543 2.7344 2.3125 4.8281 2.3125zm-6.5-19.828c1.3438-1.7891 2.832-3.1094 4.4688-3.9531 1.6445-0.84375 3.5352-1.2656 5.6719-1.2656 3.7695 0 6.8672 1.5 9.2969 4.5 2.4258 2.9922 3.6406 6.8516 3.6406 11.578 0 4.7188-1.2148 8.5781-3.6406 11.578-2.4297 3-5.5273 4.5-9.2969 4.5-2.1367 0-4.0273-0.42188-5.6719-1.2656-1.6367-0.85156-3.125-2.1758-4.4688-3.9688v4.4375h-9.7969v-42.547h9.7969z"/>
  </symbol>
  <symbol id="f" overflow="visible">
   <path d="m0.6875-30.625h9.7812l8.2344 20.781 7-20.781h9.7969l-12.891 33.531c-1.293 3.4062-2.8047 5.7852-4.5312 7.1406-1.7188 1.3633-3.9922 2.0469-6.8125 2.0469h-5.6562v-6.4375h3.0625c1.6562 0 2.8594-0.26562 3.6094-0.79688 0.75781-0.52344 1.3516-1.4648 1.7812-2.8281l0.26562-0.85938z"/>
  </symbol>
  <symbol id="b" overflow="visible">
   <path d="m5.1406-40.828h13.406l9.2969 21.844 9.3438-21.844h13.375v40.828h-9.9531v-29.859l-9.4062 22.016h-6.6719l-9.4062-22.016v29.859h-9.9844z"/>
  </symbol>
 </defs>
 <g>
  <path d="m300.29 325.72c-13.898 0-25.199 13.195-25.199 29.398 0 16.207 11.301 29.398 25.199 29.398 13.875 0 25.168-13.195 25.168-29.398 0-16.207-11.289-29.398-25.168-29.398zm0 47.602c-7.7188 0-14-8.1641-14-18.199s6.2812-18.199 14-18.199c7.707 0 13.965 8.1641 13.965 18.199 0.003907 10.031-6.2695 18.199-13.965 18.199z"/>
  <path d="m356.72 325.72c-3.0898 0-5.6016 2.5078-5.6016 5.6016v47.602c0 3.0898 2.5078 5.6016 5.6016 5.6016 3.0898 0 5.6016-2.5078 5.6016-5.6016v-47.602c0-3.0938-2.5078-5.6016-5.6016-5.6016z"/>
  <path d="m413.17 325.72c-13.875 0-25.168 13.195-25.168 29.398 0 16.207 11.289 29.398 25.168 29.398 13.887 0 25.188-13.195 25.188-29.398 0-16.207-11.301-29.398-25.188-29.398zm0 47.602c-7.707 0-13.965-8.1641-13.965-18.199s6.2734-18.199 13.965-18.199c7.707 0 13.988 8.1641 13.988 18.199 0 10.031-6.2812 18.199-13.988 18.199z"/>
  <path d="m475.21 378.92v-47.602c0-3.0898-2.5078-5.6016-5.6016-5.6016-3.0898 0-5.6016 2.5078-5.6016 5.6016v47.602c0 3.0898 2.5078 5.6016 5.6016 5.6016s5.6016-2.5117 5.6016-5.6016z"/>
  <path d="m506.46 325.72c-3.0898 0-5.6016 2.5078-5.6016 5.6016v47.602c0 3.0898 2.5078 5.6016 5.6016 5.6016 3.0898 0 5.6016-2.5078 5.6016-5.6016v-47.602c-0.003906-3.0938-2.5117-5.6016-5.6016-5.6016z"/>
  <path d="m543.34 325.72c-3.0898 0-5.6016 2.5078-5.6016 5.6016v47.602c0 3.0898 2.5078 5.6016 5.6016 5.6016 3.0898 0 5.6016-2.5078 5.6016-5.6016v-47.602c0-3.0938-2.5078-5.6016-5.6016-5.6016z"/>
  <path d="m599.79 384.52c13.875 0 25.176-13.195 25.176-29.398 0-16.207-11.301-29.398-25.176-29.398-13.887 0-25.199 13.195-25.199 29.398s11.312 29.398 25.199 29.398zm0-47.602c7.707 0 13.977 8.1641 13.977 18.199 0 10.035-6.2734 18.199-13.977 18.199-7.7188 0-14-8.1641-14-18.199 0-10.035 6.2734-18.199 14-18.199z"/>
  <path d="m599.79 410.16c-13.887 0-25.199 13.195-25.199 29.398 0 16.195 11.312 29.379 25.199 29.379 13.875 0 25.176-13.184 25.176-29.379 0.003906-16.207-11.297-29.398-25.176-29.398zm0 47.578c-7.7188 0-14-8.1641-14-18.176 0-10.035 6.2812-18.199 14-18.199 7.707 0 13.977 8.1641 13.977 18.199 0 10.02-6.2695 18.176-13.977 18.176z"/>
  <path d="m543.34 410.16c-3.0898 0-5.6016 2.5078-5.6016 5.6016v47.578c0 3.0898 2.5078 5.6016 5.6016 5.6016 3.0898 0 5.6016-2.5078 5.6016-5.6016v-47.578c0-3.0938-2.5078-5.6016-5.6016-5.6016z"/>
  <path d="m486.89 410.16c-13.875 0-25.176 13.195-25.176 29.398 0 16.195 11.301 29.379 25.176 29.379s25.176-13.184 25.176-29.379c0-16.207-11.301-29.398-25.176-29.398zm0 47.578c-7.707 0-13.977-8.1641-13.977-18.176 0-10.035 6.2734-18.199 13.977-18.199 7.707 0 13.977 8.1641 13.977 18.199 0 10.02-6.2695 18.176-13.977 18.176z"/>
  <path d="m436.06 463.33v-47.578c0-3.0898-2.5078-5.6016-5.6016-5.6016-3.0898 0-5.6016 2.5078-5.6016 5.6016v47.578c0 3.0898 2.5078 5.6016 5.6016 5.6016 3.0898 0 5.6016-2.5 5.6016-5.6016z"/>
  <path d="m393.6 468.93c3.0898 0 5.6016-2.5078 5.6016-5.6016v-47.578c0-3.0898-2.5078-5.6016-5.6016-5.6016-3.0898 0-5.6016 2.5078-5.6016 5.6016v47.578c0 3.1016 2.5 5.6016 5.6016 5.6016z"/>
  <path d="m356.72 410.16c-3.0898 0-5.6016 2.5078-5.6016 5.6016v47.578c0 3.0898 2.5078 5.6016 5.6016 5.6016 3.0898 0 5.6016-2.5078 5.6016-5.6016v-47.578c0-3.0938-2.5078-5.6016-5.6016-5.6016z"/>
  <path d="m300.29 410.16c-13.898 0-25.199 13.195-25.199 29.398 0 16.195 11.301 29.379 25.199 29.379 13.875 0 25.168-13.184 25.168-29.379 0-16.207-11.289-29.398-25.168-29.398zm0 47.578c-7.7188 0-14-8.1641-14-18.176 0-10.035 6.2812-18.199 14-18.199 7.707 0 13.965 8.1641 13.965 18.199 0.003907 10.02-6.2695 18.176-13.965 18.176z"/>
  <path d="m300.29 494.61c-13.898 0-25.199 13.184-25.199 29.379 0 16.207 11.301 29.398 25.199 29.398 13.875 0 25.168-13.195 25.168-29.398 0-16.195-11.289-29.379-25.168-29.379zm0 47.578c-7.7188 0-14-8.1641-14-18.199 0-10.023 6.2812-18.176 14-18.176 7.707 0 13.965 8.1641 13.965 18.176 0.003907 10.047-6.2695 18.199-13.965 18.199z"/>
  <path d="m356.72 494.61c-3.0898 0-5.6016 2.5078-5.6016 5.6016v47.578c0 3.0898 2.5078 5.6016 5.6016 5.6016 3.0898 0 5.6016-2.5078 5.6016-5.6016v-47.578c0-3.0898-2.5078-5.6016-5.6016-5.6016z"/>
  <path d="m413.17 494.61c-13.875 0-25.168 13.184-25.168 29.379 0 16.207 11.289 29.398 25.168 29.398 13.887 0 25.188-13.195 25.188-29.398 0-16.195-11.301-29.379-25.188-29.379zm0 47.578c-7.707 0-13.965-8.1641-13.965-18.199 0-10.023 6.2734-18.176 13.965-18.176 7.707 0 13.988 8.1641 13.988 18.176 0 10.047-6.2812 18.199-13.988 18.199z"/>
  <path d="m469.62 494.61c-3.0898 0-5.6016 2.5078-5.6016 5.6016v47.578c0 3.0898 2.5078 5.6016 5.6016 5.6016 3.0898 0 5.6016-2.5078 5.6016-5.6016v-47.578c-0.003906-3.0898-2.5117-5.6016-5.6016-5.6016z"/>
  <path d="m506.46 494.61c-3.0898 0-5.6016 2.5078-5.6016 5.6016v47.578c0 3.0898 2.5078 5.6016 5.6016 5.6016 3.0898 0 5.6016-2.5078 5.6016-5.6016v-47.578c-0.003906-3.0898-2.5117-5.6016-5.6016-5.6016z"/>
  <path d="m543.34 494.61c-3.0898 0-5.6016 2.5078-5.6016 5.6016v47.578c0 3.0898 2.5078 5.6016 5.6016 5.6016 3.0898 0 5.6016-2.5078 5.6016-5.6016v-47.578c0-3.0898-2.5078-5.6016-5.6016-5.6016z"/>
  <path d="m599.79 494.61c-13.887 0-25.199 13.184-25.199 29.379 0 16.207 11.312 29.398 25.199 29.398 13.875 0 25.176-13.195 25.176-29.398 0.003906-16.195-11.297-29.379-25.176-29.379zm0 47.578c-7.7188 0-14-8.1641-14-18.199 0-10.023 6.2812-18.176 14-18.176 7.707 0 13.977 8.1641 13.977 18.176 0 10.047-6.2695 18.199-13.977 18.199z"/>
  <path d="m82.164 22.062c0 2.1836 0.29297 4.2773 0.64844 6.7305 0.26953 1.9375 0.55859 3.8984 0.55859 5.8359 0 1.6133 0 2.207-2.7344 2.207h-3.3594v10.562h3.3594c2.7344 0 2.7344 0.875 2.7344 2.1953 0 1.8711-0.28125 3.7305-0.55859 5.6016-0.32422 2.1953-0.64844 4.4805-0.64844 6.6641 0 8.6914 5.207 13.676 14.281 13.676h4.9375v-10.863l-4.7266-0.003906c-1.7461 0-2.5742-0.13281-2.5742-3.1797 0-1.625 0.22266-3.1797 0.49219-4.9062 0.3125-1.9727 0.55859-4.0078 0.55859-6.2031 0.042969-3.4258-0.875-6.2734-2.6211-8.3086 1.5352-1.7344 2.6758-4.3359 2.6211-8.1992 0-2.2305-0.24609-4.1875-0.57031-6.2812-0.26953-1.6367-0.49219-3.2461-0.49219-4.793 0-3 0.75-3.1133 2.5742-3.1133h4.7383v-10.836h-4.9414c-8.9375 0-14.277 4.9414-14.277 13.215z"/>
  <path d="m95.277 253.69c0-1.9375 0.29297-3.8867 0.61719-6.0938 0.30078-2.1836 0.58203-4.2773 0.58203-6.4727 0-8.2773-5.3633-13.215-14.336-13.215h-4.8711v10.84h4.6484c2.0039 0.042969 2.6562 0.29297 2.6562 3.125 0 1.1758-0.17969 2.3984-0.33594 3.6289l-0.15625 1.1875c-0.33594 2.0508-0.63672 4.0195-0.63672 6.2383 0 3.875 1.1523 6.4727 2.6641 8.2109-1.7344 2.0391-2.6641 4.8594-2.6641 8.2773 0 2.25 0.3125 4.3008 0.62891 6.1055l0.17969 1.4453c0.15625 1.2109 0.32422 2.375 0.32422 3.5859 0 2.8555-0.78516 3.1484-2.6641 3.1797l-4.6445-0.003906v10.863h4.9375c8.9258 0 14.258-5.1055 14.258-13.676 0-2.1953-0.30078-4.457-0.62891-6.6641-0.28125-1.8711-0.58203-3.7422-0.58203-5.6016 0-1.332 0-2.207 2.7539-2.207h3.3594v-10.551h-3.3594c-2.7305 0.015625-2.7305-0.58984-2.7305-2.2031z"/>
  <path d="m107.97 94.562h207.87c3.0898 0 5.6016-2.5078 5.6016-5.6016 0-3.0898-2.5078-5.6016-5.6016-5.6016l-207.87 0.003906c-3.0898 0-5.6016 2.5078-5.6016 5.6016 0 3.0898 2.5 5.5977 5.6016 5.5977z"/>
  <path d="m107.97 125.95h152.97c3.0898 0 5.6016-2.5078 5.6016-5.6016 0-3.0898-2.5078-5.6016-5.6016-5.6016h-152.97c-3.0898 0-5.6016 2.5078-5.6016 5.6016 0 3.0898 2.5 5.6016 5.6016 5.6016z"/>
  <path d="m340.16 114.74h-59.605c-3.0898 0-5.6016 2.5078-5.6016 5.6016 0 3.0898 2.5078 5.6016 5.6016 5.6016h59.605c3.0898 0 5.6016-2.5078 5.6016-5.6016-0.003906-3.0898-2.5117-5.6016-5.6016-5.6016z"/>
  <path d="m107.97 157.33h117.66c3.0898 0 5.6016-2.5078 5.6016-5.6016 0-3.0898-2.5078-5.6016-5.6016-5.6016h-117.66c-3.0898 0-5.6016 2.5078-5.6016 5.6016 0 3.0898 2.5 5.6016 5.6016 5.6016z"/>
  <path d="m240.42 151.73c0 3.0898 2.5078 5.6016 5.6016 5.6016h44.723c3.0898 0 5.6016-2.5078 5.6016-5.6016 0-3.0898-2.5078-5.6016-5.6016-5.6016h-44.723c-3.1016 0-5.6016 2.5117-5.6016 5.6016z"/>
  <path d="m260.94 177.51h-152.97c-3.0898 0-5.6016 2.5078-5.6016 5.6016 0 3.0898 2.5078 5.6016 5.6016 5.6016h152.97c3.0898 0 5.6016-2.5078 5.6016-5.6016 0-3.0898-2.5117-5.6016-5.6016-5.6016z"/>
  <path d="m161.4 214.48c0-3.0898-2.5078-5.6016-5.6016-5.6016h-47.832c-3.0898 0-5.6016 2.5078-5.6016 5.6016 0 3.0898 2.5078 5.6016 5.6016 5.6016h47.836c3.1016-0.003906 5.5977-2.5 5.5977-5.6016z"/>
  <path d="m223.12 440.96c0-0.20312-0.089844-0.37891-0.11328-0.58203-0.035157-0.37109-0.10156-0.70703-0.22266-1.0625-0.042968-0.16797-0.035156-0.33594-0.10156-0.49219-0.089844-0.21094-0.24609-0.35937-0.35938-0.54687-0.10156-0.17969-0.125-0.37891-0.23438-0.54688l-19.645-27.629c-1.793-2.5078-5.2734-3.0898-7.8047-1.3086-2.5195 1.793-3.1133 5.2852-1.3203 7.8047l13.203 18.582c-24.27-0.89453-49.559-5.4648-66.461-23.879-15.242-16.598-21.461-42.875-18.445-78.086 0.25781-3.0781-2.0156-5.8008-5.1055-6.0586-3.1484-0.25781-5.8008 2.0273-6.0586 5.0977-3.2812 38.473 3.8984 67.602 21.348 86.609 19.164 20.875 47.375 26.23 72.656 27.383l-10.574 10.742c-2.1602 2.1953-2.1406 5.7461 0.066406 7.918 1.0859 1.0742 2.5078 1.6133 3.9297 1.6133 1.4453 0 2.8906-0.55859 3.9883-1.668l19.602-19.914h0.011719l0.023437-0.035156c0.11328-0.125 0.15625-0.26953 0.25781-0.39063 0.035156-0.054687 0.054687-0.11328 0.10156-0.15625 0.21094-0.26953 0.40234-0.53906 0.55859-0.82812 0.078125-0.15625 0.20312-0.26953 0.25781-0.42578 0.089844-0.21094 0.078125-0.4375 0.14453-0.64844 0.089844-0.33594 0.16797-0.67188 0.19141-1.0312 0.011719-0.15625 0.089844-0.28125 0.089844-0.44922 0.027344-0.003906 0.015625-0.011719 0.015625-0.011719z"/>
  <path d="m431.54 111.35 10.574-10.742c2.1602-2.207 2.1406-5.7461-0.066406-7.918-2.1719-2.1523-5.7461-2.1523-7.918 0.066406l-19.602 19.914c-0.011719 0-0.011719 0-0.023438 0.011719l-0.023438 0.023437c-0.11328 0.11328-0.15625 0.25781-0.24609 0.39062-0.035157 0.035156-0.054688 0.089844-0.089844 0.13281-0.22266 0.28125-0.42578 0.54688-0.59375 0.875-0.078125 0.14453-0.19141 0.26953-0.24609 0.42578-0.089843 0.21094-0.089843 0.42578-0.14453 0.63672-0.10156 0.34766-0.16797 0.67188-0.20312 1.0312-0.011719 0.15625-0.089844 0.29297-0.089844 0.46094v0.023438c0 0.21094 0.10156 0.40234 0.125 0.61719 0.035157 0.33594 0.10156 0.67188 0.20312 0.99609 0.054688 0.17969 0.042969 0.35938 0.125 0.52734 0.089844 0.21094 0.25781 0.37109 0.37109 0.57031 0.10156 0.16797 0.125 0.34766 0.23438 0.50391l19.645 27.629c1.0977 1.5352 2.8125 2.3516 4.5586 2.3516 1.1328 0 2.2617-0.33594 3.2461-1.0312 2.5195-1.793 3.1016-5.2852 1.3086-7.8047l-13.215-18.594c24.281 0.89453 49.57 5.4648 66.484 23.879 15.242 16.598 21.449 42.875 18.434 78.086-0.25781 3.0781 2.0273 5.7891 5.0977 6.0586 0.16797 0.011719 0.32422 0.023438 0.49219 0.023438 2.8789 0 5.3203-2.207 5.5664-5.1289 3.293-38.461-3.8984-67.602-21.348-86.609-19.152-20.898-47.379-26.266-72.656-27.406z"/>
  <use x="70" y="728" xlink:href="#i"/>
  <use x="111.097656" y="728" xlink:href="#e"/>
  <use x="138.714844" y="728" xlink:href="#a"/>
  <use x="176.695312" y="728" xlink:href="#d"/>
  <use x="214.484375" y="728" xlink:href="#h"/>
  <use x="241.253906" y="728" xlink:href="#a"/>
  <use x="279.234375" y="728" xlink:href="#c"/>
  <use x="338.816406" y="728" xlink:href="#g"/>
  <use x="378.902344" y="728" xlink:href="#f"/>
  <use x="434.902344" y="728" xlink:href="#b"/>
  <use x="490.628906" y="728" xlink:href="#a"/>
  <use x="528.609375" y="728" xlink:href="#c"/>
  <use x="588.191406" y="728" xlink:href="#b"/>
  <use x="643.917969" y="728" xlink:href="#d"/>
  <use x="681.707031" y="728" xlink:href="#e"/>
 </g>
</svg>
