<?xml version="1.0" encoding="UTF-8"?>
<svg width="700pt" height="700pt" version="1.1" viewBox="0 0 700 700" xmlns="http://www.w3.org/2000/svg">
 <g>
  <path d="m317.25 363.99h-14.418l-5.7266-14.906h-26.227l-5.4062 14.906h-14.051l25.555-65.602h14.008l26.273 65.602zm-24.395-25.949-9.043-24.348-8.8594 24.348zm28.059 4.6133 12.891-1.2695c0.76562 4.3359 2.3359 7.5156 4.7188 9.5469 2.3672 2.0156 5.5586 3.0391 9.5938 3.0391 4.2617 0 7.4844-0.90234 9.6367-2.7188 2.168-1.8008 3.2539-3.9102 3.2539-6.3242 0-1.5586-0.45703-2.8711-1.375-3.957-0.90234-1.1016-2.4883-2.0469-4.7656-2.8398-1.543-0.55078-5.0859-1.4961-10.602-2.8711-7.1016-1.7578-12.082-3.9258-14.938-6.4922-4.0312-3.6055-6.0469-8.0039-6.0469-13.195 0-3.3438 0.94531-6.4609 2.8398-9.3789 1.8945-2.9023 4.6289-5.1172 8.1875-6.6445 3.5742-1.5117 7.8672-2.2773 12.906-2.2773 8.25 0 14.434 1.8008 18.605 5.4062 4.1562 3.6211 6.3398 8.4297 6.5508 14.465l-13.242 0.58203c-0.56641-3.375-1.7852-5.8047-3.6523-7.2695-1.8633-1.4805-4.6602-2.2148-8.3867-2.2148-3.8477 0-6.875 0.77734-9.043 2.3672-1.4062 1.0078-2.1094 2.3672-2.1094 4.0625 0 1.5586 0.65625 2.8867 1.9688 3.9883 1.6641 1.4062 5.7266 2.8711 12.172 4.3828 6.4453 1.5273 11.211 3.1016 14.297 4.7188 3.0859 1.6328 5.5 3.8477 7.2539 6.6758 1.7422 2.8242 2.6133 6.3086 2.6133 10.449 0 3.7578-1.0391 7.2852-3.1328 10.555-2.0938 3.2852-5.0391 5.7266-8.8594 7.3164-3.8203 1.6055-8.5859 2.3984-14.281 2.3984-8.293 0-14.664-1.9102-19.109-5.7422-4.4453-3.832-7.1016-9.4258-7.957-16.754zm64.305 21.34v-65.602h19.824l11.898 44.754 11.762-44.754h19.871v65.602h-12.297v-51.641l-13.027 51.641h-12.754l-12.984-51.641v51.641h-12.297z"/>
  <path d="m225.52 262.58c0 2.8555 2.3164 5.168 5.168 5.168 2.8555 0 5.168-2.3164 5.168-5.168v-145.41h181.02l47.266 47.266v98.145c0 2.8555 2.3164 5.168 5.168 5.168 2.8555 0 5.168-2.3164 5.168-5.168v-100.29c0-1.3242-0.50391-2.6445-1.5156-3.6562l-50.273-50.273c-0.9375-0.94922-2.2383-1.5352-3.6758-1.5352h-188.33c-2.8555 0-5.168 2.3164-5.168 5.168v150.58zm248.96 137.27c0-2.8555-2.3164-5.168-5.168-5.168-2.8555 0-5.168 2.3164-5.168 5.168v42.984h-228.29v-42.984c0-2.8555-2.3164-5.168-5.168-5.168-2.8555 0-5.168 2.3164-5.168 5.168v48.152c0 2.8555 2.3164 5.168 5.168 5.168h238.62c2.8555 0 5.168-2.3164 5.168-5.168v-48.152z"/>
  <path d="m424.19 112c0-2.8555-2.3164-5.168-5.168-5.168-2.8555 0-5.168 2.3164-5.168 5.168v25.148c0 8.3438 3.4102 15.922 8.9023 21.414 5.4922 5.4922 13.074 8.9023 21.414 8.9023h25.148c2.8555 0 5.168-2.3164 5.168-5.168 0-2.8555-2.3164-5.168-5.168-5.168h-25.148c-5.4883 0-10.48-2.25-14.105-5.8711-3.6211-3.625-5.8711-8.6172-5.8711-14.105v-25.148z"/>
  <path d="m202.15 394.68h295.7v-126.93h-295.7zm300.87 10.34h-306.04c-2.8555 0-5.168-2.3164-5.168-5.168v-137.27c0-2.8555 2.3164-5.168 5.168-5.168h306.04c2.8555 0 5.168 2.3164 5.168 5.168v137.27c0 2.8555-2.3164 5.168-5.168 5.168z"/>
  <path d="m271.59 166.08c-2.8555 0-5.168 2.3164-5.168 5.168 0 2.8555 2.3164 5.168 5.168 5.168h111.38c2.8555 0 5.168-2.3164 5.168-5.168 0-2.8555-2.3164-5.168-5.168-5.168z"/>
  <path d="m271.59 194.59c-2.8555 0-5.168 2.3164-5.168 5.168 0 2.8555 2.3164 5.168 5.168 5.168h156.82c2.8555 0 5.168-2.3164 5.168-5.168 0-2.8555-2.3164-5.168-5.168-5.168z"/>
  <path d="m271.59 223.11c-2.8555 0-5.168 2.3164-5.168 5.168 0 2.8555 2.3164 5.168 5.168 5.168h156.82c2.8555 0 5.168-2.3164 5.168-5.168 0-2.8555-2.3164-5.168-5.168-5.168z"/>
 </g>
</svg>
