<?xml version="1.0" encoding="UTF-8" standalone="no"?>
<svg
   xmlns:dc="http://purl.org/dc/elements/1.1/"
   xmlns:cc="http://creativecommons.org/ns#"
   xmlns:rdf="http://www.w3.org/1999/02/22-rdf-syntax-ns#"
   xmlns:svg="http://www.w3.org/2000/svg"
   xmlns="http://www.w3.org/2000/svg"
   xmlns:xlink="http://www.w3.org/1999/xlink"
   xmlns:sodipodi="http://sodipodi.sourceforge.net/DTD/sodipodi-0.dtd"
   xmlns:inkscape="http://www.inkscape.org/namespaces/inkscape"
   width="700pt"
   height="700pt"
   version="1.1"
   viewBox="100 50 500 500"
   id="svg150"
   sodipodi:docname="configure.svg"
   inkscape:version="1.0.1 (3bc2e813f5, 2020-09-07)">
  <metadata
     id="metadata154">
    <rdf:RDF>
      <cc:Work
         rdf:about="">
        <dc:format>image/svg+xml</dc:format>
        <dc:type
           rdf:resource="http://purl.org/dc/dcmitype/StillImage" />
        <dc:title></dc:title>
      </cc:Work>
    </rdf:RDF>
  </metadata>
  <sodipodi:namedview
     pagecolor="#ffffff"
     bordercolor="#666666"
     borderopacity="1"
     objecttolerance="10"
     gridtolerance="10"
     guidetolerance="10"
     inkscape:pageopacity="0"
     inkscape:pageshadow="2"
     inkscape:window-width="1817"
     inkscape:window-height="1207"
     id="namedview152"
     showgrid="false"
     viewbox-x="100"
     viewbox-y="50"
     inkscape:zoom="0.54"
     inkscape:cx="474.39532"
     inkscape:cy="356.37569"
     inkscape:window-x="0"
     inkscape:window-y="0"
     inkscape:window-maximized="0"
     inkscape:current-layer="svg150"
     inkscape:document-rotation="0" />
  <defs
     id="defs68">
    <symbol
       id="v"
       overflow="visible">
      <path
         d="m 18.766,-1.125 c -0.96875,0.5 -1.9805,0.875 -3.0312,1.125 -1.043,0.25781 -2.1367,0.39062 -3.2812,0.39062 -3.3984,0 -6.0898,-0.94531 -8.0781,-2.8438 -1.9922,-1.9062 -2.9844,-4.4844 -2.9844,-7.7344 0,-3.2578 0.99219,-5.8359 2.9844,-7.7344 1.9883,-1.9062 4.6797,-2.8594 8.0781,-2.8594 1.1445,0 2.2383,0.13281 3.2812,0.39062 1.0508,0.25 2.0625,0.625 3.0312,1.125 v 4.2188 c -0.98047,-0.65625 -1.9453,-1.1406 -2.8906,-1.4531 -0.94922,-0.3125 -1.9492,-0.46875 -3,-0.46875 -1.875,0 -3.3516,0.60547 -4.4219,1.8125 -1.0742,1.1992 -1.6094,2.8555 -1.6094,4.9688 0,2.1055 0.53516,3.7617 1.6094,4.9688 1.0703,1.1992 2.5469,1.7969 4.4219,1.7969 1.0508,0 2.0508,-0.14844 3,-0.45312 0.94531,-0.3125 1.9102,-0.80078 2.8906,-1.4688 z"
         id="path2" />
    </symbol>
    <symbol
       id="d"
       overflow="visible">
      <path
         d="m 13.734,-11.141 c -0.4375,-0.19531 -0.87109,-0.34375 -1.2969,-0.4375 -0.41797,-0.10156 -0.83984,-0.15625 -1.2656,-0.15625 -1.2617,0 -2.2305,0.40625 -2.9062,1.2188 -0.67969,0.80469 -1.0156,1.9531 -1.0156,3.4531 v 7.0625 H 2.3591 v -15.312 h 4.8906 v 2.5156 c 0.625,-1 1.3438,-1.7266 2.1562,-2.1875 0.82031,-0.46875 1.8008,-0.70312 2.9375,-0.70312 0.16406,0 0.34375,0.01172 0.53125,0.03125 0.19531,0.01172 0.47656,0.03906 0.84375,0.07813 z"
         id="path5" />
    </symbol>
    <symbol
       id="b"
       overflow="visible">
      <path
         d="m 17.641,-7.7031 v 1.4062 H 6.188 c 0.125,1.1484 0.53906,2.0078 1.25,2.5781 0.70703,0.57422 1.7031,0.85938 2.9844,0.85938 1.0312,0 2.082,-0.14844 3.1562,-0.45312 1.082,-0.3125 2.1914,-0.77344 3.3281,-1.3906 v 3.7656 c -1.1562,0.4375 -2.3125,0.76562 -3.4688,0.98438 -1.1562,0.22656 -2.3125,0.34375 -3.4688,0.34375 -2.7734,0 -4.9297,-0.70312 -6.4688,-2.1094 -1.5312,-1.4062 -2.2969,-3.3789 -2.2969,-5.9219 0,-2.5 0.75391,-4.4609 2.2656,-5.8906 1.5078,-1.4375 3.582,-2.1562 6.2188,-2.1562 2.4062,0 4.332,0.73047 5.7812,2.1875 1.4453,1.4492 2.1719,3.3828 2.1719,5.7969 z m -5.0312,-1.625 c 0,-0.92578 -0.27344,-1.6719 -0.8125,-2.2344 -0.54297,-0.57031 -1.25,-0.85938 -2.125,-0.85938 -0.94922,0 -1.7188,0.26562 -2.3125,0.79688 -0.5937,0.53126 -0.96484,1.2969 -1.1094,2.2969 z"
         id="path8" />
    </symbol>
    <symbol
       id="e"
       overflow="visible">
      <path
         d="m 9.2188,-6.8906 c -1.0234,0 -1.793,0.17188 -2.3125,0.51562 -0.51172,0.34375 -0.76562,0.85547 -0.76562,1.5312 0,0.625 0.20703,1.1172 0.625,1.4688 0.41406,0.34375 0.98828,0.51562 1.7188,0.51562 0.92578,0 1.7031,-0.32812 2.3281,-0.98438 0.63281,-0.66406 0.95312,-1.4922 0.95312,-2.4844 v -0.5625 z m 7.4688,-1.8438 V 0 h -4.9219 v -2.2656 c -0.65625,0.92969 -1.3984,1.6055 -2.2188,2.0312 -0.82422,0.41406 -1.8242,0.625 -3,0.625 -1.5859,0 -2.8711,-0.45703 -3.8594,-1.375 -0.99219,-0.92578 -1.4844,-2.1289 -1.4844,-3.6094 0,-1.7891 0.61328,-3.1016 1.8438,-3.9375 1.2383,-0.84375 3.1797,-1.2656 5.8281,-1.2656 h 2.8906 v -0.39062 c 0,-0.76953 -0.30859,-1.332 -0.92188,-1.6875 -0.61719,-0.36328 -1.5703,-0.54688 -2.8594,-0.54688 -1.0547,0 -2.0312,0.10547 -2.9375,0.3125 -0.89844,0.21094 -1.7305,0.52344 -2.5,0.9375 v -3.7344 c 1.0391,-0.25 2.0859,-0.44141 3.1406,-0.57812 1.0625,-0.13281 2.125,-0.20312 3.1875,-0.20312 2.7578,0 4.75,0.54688 5.9688,1.6406 1.2266,1.0859 1.8438,2.8555 1.8438,5.3125 z"
         id="path11" />
    </symbol>
    <symbol
       id="c"
       overflow="visible">
      <path
         d="m 7.7031,-19.656 v 4.3438 H 12.75 v 3.5 H 7.7031 v 6.5 c 0,0.71094 0.14062,1.1875 0.42188,1.4375 0.28126,0.25 0.83594,0.375 1.6719,0.375 h 2.5156 v 3.5 h -4.1875 c -1.9375,0 -3.3125,-0.39844 -4.125,-1.2031 -0.80469,-0.8125 -1.2031,-2.1797 -1.2031,-4.1094 v -6.5 h -2.4219 v -3.5 h 2.4219 v -4.3438 z"
         id="path14" />
    </symbol>
    <symbol
       id="l"
       overflow="visible">
      <path
         d="m 12.766,-13.078 v -8.2031 h 4.9219 V -1e-4 H 12.766 v -2.2188 c -0.66797,0.90625 -1.4062,1.5703 -2.2188,1.9844 -0.8126,0.4141 -1.7578,0.625 -2.8281,0.625 -1.8867,0 -3.4336,-0.75 -4.6406,-2.25 -1.2109,-1.5 -1.8125,-3.4258 -1.8125,-5.7812 0,-2.3633 0.60156,-4.2969 1.8125,-5.7969 1.207,-1.5 2.7539,-2.25 4.6406,-2.25 1.0625,0 2,0.21484 2.8125,0.64062 0.82031,0.42969 1.5664,1.0859 2.2344,1.9688 z m -3.2188,9.9219 c 1.0391,0 1.8359,-0.37891 2.3906,-1.1406 0.55078,-0.76953 0.82812,-1.8828 0.82812,-3.3438 0,-1.457 -0.27734,-2.5664 -0.82812,-3.3281 -0.55469,-0.76953 -1.3516,-1.1562 -2.3906,-1.1562 -1.043,0 -1.8398,0.38672 -2.3906,1.1562 -0.55469,0.76172 -0.82812,1.8711 -0.82812,3.3281 0,1.4609 0.27344,2.5742 0.82812,3.3438 0.55078,0.76172 1.3477,1.1406 2.3906,1.1406 z"
         id="path17" />
    </symbol>
    <symbol
       id="k"
       overflow="visible">
      <path
         d="m 10.5,-3.1562 c 1.0508,0 1.8516,-0.37891 2.4062,-1.1406 0.55078,-0.76953 0.82812,-1.8828 0.82812,-3.3438 0,-1.457 -0.27734,-2.5664 -0.82812,-3.3281 -0.55469,-0.76953 -1.3555,-1.1562 -2.4062,-1.1562 -1.0547,0 -1.8594,0.38672 -2.4219,1.1562 -0.55469,0.77344 -0.82812,1.8828 -0.82812,3.3281 0,1.4492 0.27344,2.5586 0.82812,3.3281 0.5625,0.77344 1.3672,1.1562 2.4219,1.1562 z m -3.25,-9.9219 c 0.67578,-0.88281 1.4219,-1.5391 2.2344,-1.9688 0.82031,-0.42578 1.7656,-0.64062 2.8281,-0.64062 1.8945,0 3.4453,0.75 4.6562,2.25 1.207,1.5 1.8125,3.4336 1.8125,5.7969 0,2.3555 -0.60547,4.2812 -1.8125,5.7812 -1.2109,1.5 -2.7617,2.25 -4.6562,2.25 -1.0625,0 -2.0078,-0.21094 -2.8281,-0.625 C 8.6719,-0.6602 7.9258,-1.32032 7.25,-2.21882 V -2e-5 H 2.3594 v -21.281 H 7.25 Z"
         id="path20" />
    </symbol>
    <symbol
       id="j"
       overflow="visible">
      <path
         d="m 0.34375,-15.312 h 4.8906 l 4.125,10.391 3.5,-10.391 h 4.8906 l -6.4375,16.766 c -0.64844,1.6953 -1.4023,2.8828 -2.2656,3.5625 -0.86719,0.6875 -2,1.0312 -3.4062,1.0312 H 2.79685 V 2.8289 h 1.5312 c 0.83203,0 1.4375,-0.13672 1.8125,-0.40625 C 6.52336,2.16093 6.82024,1.69218 7.03117,1.01645 L 7.17179,0.59457 Z"
         id="path23" />
    </symbol>
    <symbol
       id="i"
       overflow="visible">
      <path
         d="m 0.14062,-20.406 h 18.812 v 3.9688 h -6.7656 V 8e-4 h -5.2656 v -16.438 h -6.7812 z"
         id="path26" />
    </symbol>
    <symbol
       id="a"
       overflow="visible">
      <path
         d="m 9.6406,-12.188 c -1.0859,0 -1.9141,0.39062 -2.4844,1.1719 -0.57422,0.78125 -0.85938,1.9062 -0.85938,3.375 0,1.4688 0.28516,2.5938 0.85938,3.375 0.57031,0.77344 1.3984,1.1562 2.4844,1.1562 1.0625,0 1.875,-0.38281 2.4375,-1.1562 0.57031,-0.78125 0.85938,-1.9062 0.85938,-3.375 0,-1.4688 -0.28906,-2.5938 -0.85938,-3.375 -0.5625,-0.78125 -1.375,-1.1719 -2.4375,-1.1719 z m 0,-3.5 c 2.6328,0 4.6914,0.71484 6.1719,2.1406 1.4766,1.418 2.2188,3.3867 2.2188,5.9062 0,2.5117 -0.74219,4.4805 -2.2188,5.9062 C 14.332,-0.317 12.2734,0.39 9.6406,0.39 6.9922,0.39 4.9258,-0.31703 3.4375,-1.735 1.9453,-3.1608 1.2031,-5.1295 1.2031,-7.6412 c 0,-2.5195 0.74219,-4.4883 2.2344,-5.9062 1.4883,-1.4258 3.5547,-2.1406 6.2031,-2.1406 z"
         id="path29" />
    </symbol>
    <symbol
       id="h"
       overflow="visible">
      <path
         d="m 16.547,-12.766 c 0.61328,-0.94531 1.3477,-1.6719 2.2031,-2.1719 0.85156,-0.5 1.7891,-0.75 2.8125,-0.75 1.7578,0 3.0977,0.54688 4.0156,1.6406 0.92578,1.0859 1.3906,2.6562 1.3906,4.7188 V -4e-4 h -4.9219 v -7.9844 -0.35938 c 0.0078,-0.13281 0.01563,-0.32031 0.01563,-0.5625 0,-1.082 -0.16406,-1.8633 -0.48438,-2.3438 -0.3125,-0.48828 -0.82422,-0.73438 -1.5312,-0.73438 -0.92969,0 -1.6484,0.38672 -2.1562,1.1562 -0.51172,0.76172 -0.77344,1.8672 -0.78125,3.3125 v 7.5156 h -4.9219 v -7.9844 c 0,-1.6953 -0.14844,-2.7852 -0.4375,-3.2656 -0.29297,-0.48828 -0.8125,-0.73438 -1.5625,-0.73438 -0.9375,0 -1.6641,0.38672 -2.1719,1.1562 -0.51172,0.76172 -0.76562,1.8594 -0.76562,3.2969 v 7.5312 h -4.9219 v -15.312 h 4.9219 v 2.2344 c 0.60156,-0.86328 1.2891,-1.5156 2.0625,-1.9531 0.78125,-0.4375 1.6406,-0.65625 2.5781,-0.65625 1.0625,0 2,0.25781 2.8125,0.76562 0.8125,0.51172 1.4258,1.2305 1.8438,2.1562 z"
         id="path32" />
    </symbol>
    <symbol
       id="u"
       overflow="visible">
      <path
         d="m 14.312,-14.828 v 3.7188 c -1.043,-0.4375 -2.0547,-0.76562 -3.0312,-0.98438 -0.98047,-0.21875 -1.9023,-0.32812 -2.7656,-0.32812 -0.92969,0 -1.6211,0.11719 -2.0781,0.34375 -0.44922,0.23047 -0.67188,0.58984 -0.67188,1.0781 0,0.38672 0.17188,0.68359 0.51562,0.89062 0.34375,0.21094 0.95703,0.36719 1.8438,0.46875 l 0.85938,0.125 c 2.5078,0.32422 4.1953,0.85156 5.0625,1.5781 0.86328,0.73047 1.2969,1.8711 1.2969,3.4219 0,1.6367 -0.60547,2.8672 -1.8125,3.6875 -1.1992,0.8125 -2.9922,1.2188 -5.375,1.2188 -1.0234,0 -2.0742,-0.078125 -3.1562,-0.23438 -1.0742,-0.15625 -2.1797,-0.39453 -3.3125,-0.71875 v -3.7188 c 0.96875,0.48047 1.9609,0.83984 2.9844,1.0781 1.0312,0.23047 2.0781,0.34375 3.1406,0.34375 0.95703,0 1.6758,-0.12891 2.1562,-0.39062 0.47656,-0.26953 0.71875,-0.66406 0.71875,-1.1875 0,-0.4375 -0.16797,-0.75781 -0.5,-0.96875 -0.33594,-0.21875 -0.99609,-0.38281 -1.9844,-0.5 L 7.34339,-6.01551 c -2.1797,-0.26953 -3.7031,-0.77344 -4.5781,-1.5156 -0.875,-0.73828 -1.3125,-1.8594 -1.3125,-3.3594 0,-1.625 0.55078,-2.8281 1.6562,-3.6094 1.1133,-0.78906 2.8203,-1.1875 5.125,-1.1875 0.89453,0 1.8359,0.07422 2.8281,0.21875 1,0.13672 2.082,0.35156 3.25,0.64062 z"
         id="path35" />
    </symbol>
    <symbol
       id="t"
       overflow="visible">
      <path
         d="m 2.5781,-20.406 h 5.25 v 7.4375 l 7.5938,-7.4375 h 6.1094 l -9.8281,9.6562 10.844,10.75 H 15.9534 L 7.8284,-8.0467 V 2e-4 h -5.25 z"
         id="path38" />
    </symbol>
    <symbol
       id="g"
       overflow="visible">
      <path
         d="M 17.75,-9.3281 V 0 h -4.9219 v -7.1406 c 0,-1.3203 -0.03125,-2.2344 -0.09375,-2.7344 -0.0625,-0.5 -0.16797,-0.86719 -0.3125,-1.1094 -0.1875,-0.3125 -0.44922,-0.55469 -0.78125,-0.73438 -0.32422,-0.17578 -0.69531,-0.26562 -1.1094,-0.26562 -1.0234,0 -1.8242,0.39844 -2.4062,1.1875 -0.58594,0.78125 -0.875,1.8711 -0.875,3.2656 V -1e-4 H 2.3594 v -15.312 H 7.25 v 2.2344 c 0.73828,-0.88281 1.5195,-1.5391 2.3438,-1.9688 0.83203,-0.42578 1.75,-0.64062 2.75,-0.64062 1.7695,0 3.1133,0.54688 4.0312,1.6406 0.91406,1.0859 1.375,2.6562 1.375,4.7188 z"
         id="path41" />
    </symbol>
    <symbol
       id="f"
       overflow="visible">
      <path
         d="M 7.25,-2.2188 V 5.8281 H 2.3594 v -21.141 H 7.25 v 2.2344 c 0.67578,-0.88281 1.4219,-1.5391 2.2344,-1.9688 0.82031,-0.42578 1.7656,-0.64062 2.8281,-0.64062 1.8945,0 3.4453,0.75 4.6562,2.25 1.207,1.5 1.8125,3.4336 1.8125,5.7969 0,2.3555 -0.60547,4.2812 -1.8125,5.7812 -1.2109,1.5 -2.7617,2.25 -4.6562,2.25 -1.0625,0 -2.0078,-0.21094 -2.8281,-0.625 C 8.6719,-0.6606 7.9258,-1.32072 7.25,-2.21922 Z m 3.25,-9.9062 c -1.0547,0 -1.8594,0.38672 -2.4219,1.1562 -0.55469,0.77344 -0.82812,1.8828 -0.82812,3.3281 0,1.4492 0.27344,2.5586 0.82812,3.3281 0.5625,0.77344 1.3672,1.1562 2.4219,1.1562 1.0508,0 1.8516,-0.37891 2.4062,-1.1406 0.55078,-0.76953 0.82812,-1.8828 0.82812,-3.3438 0,-1.457 -0.27734,-2.5664 -0.82812,-3.3281 -0.55469,-0.76953 -1.3555,-1.1562 -2.4062,-1.1562 z"
         id="path44" />
    </symbol>
    <symbol
       id="s"
       overflow="visible">
      <path
         d="m 12.422,-21.281 v 3.2188 H 9.7189 c -0.6875,0 -1.1719,0.125 -1.4531,0.375 -0.27344,0.25 -0.40625,0.6875 -0.40625,1.3125 v 1.0625 h 4.1875 v 3.5 H 7.85955 V -2e-4 h -4.8906 v -11.812 h -2.4375 v -3.5 h 2.4375 v -1.0625 c 0,-1.6641 0.46094,-2.8984 1.3906,-3.7031 0.92578,-0.80078 2.3672,-1.2031 4.3281,-1.2031 z"
         id="path47" />
    </symbol>
    <symbol
       id="r"
       overflow="visible">
      <path
         d="M 17.75,-9.3281 V 0 h -4.9219 v -7.1094 c 0,-1.3438 -0.03125,-2.2656 -0.09375,-2.7656 -0.0625,-0.5 -0.16797,-0.86719 -0.3125,-1.1094 -0.1875,-0.3125 -0.44922,-0.55469 -0.78125,-0.73438 -0.32422,-0.17578 -0.69531,-0.26562 -1.1094,-0.26562 -1.0234,0 -1.8242,0.39844 -2.4062,1.1875 -0.58594,0.78125 -0.875,1.8711 -0.875,3.2656 V -1e-4 H 2.3594 v -21.281 H 7.25 v 8.2031 c 0.73828,-0.88281 1.5195,-1.5391 2.3438,-1.9688 0.83203,-0.42578 1.75,-0.64062 2.75,-0.64062 1.7695,0 3.1133,0.54688 4.0312,1.6406 0.91406,1.0859 1.375,2.6562 1.375,4.7188 z"
         id="path50" />
    </symbol>
    <symbol
       id="q"
       overflow="visible">
      <path
         d="m 2.5781,-20.406 h 5.875 l 7.4219,14 v -14 h 4.9844 V 0 h -5.875 L 7.5625,-14 V 0 H 2.5781 Z"
         id="path53" />
    </symbol>
    <symbol
       id="p"
       overflow="visible">
      <path
         d="m 2.1875,-5.9688 v -9.3438 h 4.9219 v 1.5312 c 0,0.83594 -0.00781,1.875 -0.015625,3.125 -0.011719,1.25 -0.015625,2.0859 -0.015625,2.5 0,1.2422 0.03125,2.1328 0.09375,2.6719 0.070313,0.54297 0.17969,0.93359 0.32812,1.1719 0.20703,0.32422 0.47266,0.57422 0.79688,0.75 0.32031,0.16797 0.69141,0.25 1.1094,0.25 1.0195,0 1.8203,-0.39062 2.4062,-1.1719 0.58203,-0.78125 0.875,-1.8672 0.875,-3.2656 v -7.5625 h 4.8906 V -6e-4 H 12.6875 V -2.2194 C 11.94531,-1.32096 11.1641,-0.6608 10.3437,-0.235 9.51948,0.17906 8.6093,0.39 7.6093,0.39 5.8476,0.39 4.5038,-0.14906 3.5781,-1.235 2.64841,-2.317 2.1875,-3.8952 2.1875,-5.9694 Z"
         id="path56" />
    </symbol>
    <symbol
       id="o"
       overflow="visible">
      <path
         d="m 2.5781,-20.406 h 8.7344 c 2.5938,0 4.582,0.57812 5.9688,1.7344 1.3945,1.1484 2.0938,2.7891 2.0938,4.9219 0,2.1367 -0.69922,3.7812 -2.0938,4.9375 -1.3867,1.1562 -3.375,1.7344 -5.9688,1.7344 H 7.8281 V 3e-4 h -5.25 z m 5.25,3.8125 v 5.7031 H 10.75 c 1.0195,0 1.8047,-0.25 2.3594,-0.75 0.5625,-0.5 0.84375,-1.2031 0.84375,-2.1094 0,-0.91406 -0.28125,-1.6172 -0.84375,-2.1094 -0.55469,-0.48828 -1.3398,-0.73438 -2.3594,-0.73438 z"
         id="path59" />
    </symbol>
    <symbol
       id="n"
       overflow="visible">
      <path
         d="M 2.3594,-15.312 H 7.25 v 15.031 c 0,2.0508 -0.49609,3.6172 -1.4844,4.7031 -0.98047,1.082 -2.4062,1.625 -4.2812,1.625 H -0.9375 V 2.8283 h 0.85938 c 0.92578,0 1.5625,-0.21094 1.9062,-0.625 0.35156,-0.41797 0.53125,-1.2461 0.53125,-2.4844 z m 0,-5.9688 H 7.25 v 4 H 2.3594 Z"
         id="path62" />
    </symbol>
    <symbol
       id="m"
       overflow="visible">
      <path
         d="m 14.719,-14.828 v 3.9844 c -0.65625,-0.45703 -1.3242,-0.79688 -2,-1.0156 -0.66797,-0.21875 -1.3594,-0.32812 -2.0781,-0.32812 -1.3672,0 -2.4336,0.40234 -3.2031,1.2031 -0.76172,0.79297 -1.1406,1.9062 -1.1406,3.3438 0,1.4297 0.37891,2.543 1.1406,3.3438 0.76953,0.79297 1.8359,1.1875 3.2031,1.1875 0.75781,0 1.4844,-0.10938 2.1719,-0.32812 0.6875,-0.22656 1.3203,-0.56641 1.9062,-1.0156 v 4 c -0.76172,0.28125 -1.5391,0.48828 -2.3281,0.625 -0.78125,0.14453 -1.5742,0.21875 -2.375,0.21875 -2.7617,0 -4.9219,-0.70703 -6.4844,-2.125 -1.5547,-1.4141 -2.3281,-3.3828 -2.3281,-5.9062 0,-2.5312 0.77344,-4.5039 2.3281,-5.9219 1.5625,-1.4141 3.7227,-2.125 6.4844,-2.125 0.80078,0 1.5938,0.07422 2.375,0.21875 0.78125,0.13672 1.5547,0.35156 2.3281,0.64062 z"
         id="path65" />
    </symbol>
  </defs>
  <g
     id="g148"
     transform="translate(-3.3721034,25.074849)">
    <path
       d="m 358.91,86.309 34.145,4.6094 0.18359,0.20703 c 0.92578,5.1055 6.5234,30.453 28.094,40.84 5.9062,2.8438 12.48,4.2891 19.531,4.2891 14.633,0 27.215,-6.3164 30.004,-7.8164 l 0.27344,-0.0117 0.72656,0.0781 c 1.4844,1.1719 6.9453,5.5312 12.59,10.93 5.6523,5.3984 10.258,10.668 11.473,12.078 l 0.11719,0.99609 c -2.1289,4.3789 -12.75,28.398 -1.3164,49.66 11.316,21.074 36.875,25.555 42.035,26.258 l 0.21094,0.17188 6.1328,33.902 -0.16406,0.28516 c -4.5312,2.4414 -26.887,15.598 -30.109,39.316 -3.2148,23.742 14.867,42.391 18.602,45.965 l 0.0781,0.30078 -15.00801,31.012 -0.20703,0.125 c -1.3047,-0.17188 -4.457,-0.53125 -8.6289,-0.53125 -11.379,0 -27.367,2.5352 -38.92199,14.621 -16.53501,17.277 -12.914,42.953 -11.988,48.066 l -0.11328,0.28125 -30.312,16.359 -0.30078,-0.0664 c -3.2422,-3.0977 -19.105,-17.199 -39.223,-17.199 -2.5352,0 -5.0742,0.23047 -7.5195,0.67188 -23.543,4.2656 -35.699,27.164 -37.941,31.809 l -0.28125,0.17188 -34.137,-4.6094 -0.19142,-0.21094 c -0.92969,-5.1172 -6.5391,-30.445 -28.10199,-40.824 -5.90621,-2.8438 -12.48001,-4.2891 -19.543,-4.2891 -14.62101,0 -27.195,6.3008 -29.98,7.8047 l -0.28125,0.0117 -0.73438,-0.0781 c -1.4883,-1.1758 -6.9492,-5.5391 -12.57,-10.902 -5.6562,-5.4219 -10.27,-10.695 -11.492,-12.105 l -0.11328,-1.0039 c 2.1211,-4.3789 12.734,-28.391 1.3164,-49.629 -11.316,-21.094 -36.887,-25.57 -42.027,-26.266 l -0.21094,-0.17188 -6.1328,-33.914 0.16406,-0.28516 c 4.5234,-2.4414 26.875,-15.598 30.102,-39.316 3.2148,-23.727 -14.844,-42.379 -18.602,-45.969 l -0.0781,-0.29297 15.012,-31.023 0.20312,-0.125 c 1.3047,0.17188 4.457,0.53125 8.6289,0.53125 11.375,0 27.363,-2.5352 38.926,-14.629 16.531,-17.289 12.902,-42.965 11.977,-48.059 l 0.11719,-0.28516 30.312,-16.363 0.29688,0.0664 c 3.2461,3.1094 19.105,17.215 39.227,17.215 2.5312,0 5.0664,-0.22266 7.5273,-0.66797 23.531,-4.2773 35.695,-27.176 37.934,-31.82 l 0.29297,-0.16797 m -0.19531,-16.902 c -5.957,-0.0039 -12.617,4.1367 -15.082,9.4961 0,0 -9.1172,19.809 -25.945,22.863 -1.5195,0.28125 -3.0352,0.39844 -4.5234,0.39844 -15.008,0 -27.82,-12.758 -27.82,-12.758 -2.9297,-2.918 -7.5781,-4.5547 -12.012,-4.5547 -2.1797,0 -4.3047,0.38672 -6.1602,1.2227 l -33.293,17.977 c -5.2031,3.293 -8.4688,10.93 -7.2578,16.969 0,0 4.2969,21.391 -7.5312,33.758 -7.6836,8.0352 -19.473,9.4414 -26.785,9.4414 -3.9531,0 -6.6094,-0.41016 -6.6094,-0.41016 -0.64844,-0.10156 -1.3164,-0.14453 -1.9922,-0.14453 -5.6445,0 -11.906,3.3828 -14.637,8.1523 l -16.469,34.059 c -2.2617,5.7227 -0.41016,13.828 4.1211,17.992 0,0 16.082,14.801 13.781,31.773 -2.3086,16.945 -21.684,26.926 -21.684,26.926 -5.4766,2.8164 -9.4258,10.137 -8.7656,16.258 l 6.7266,37.223 c 1.5195,5.9688 7.7656,11.434 13.887,12.145 0,0 21.688,2.5195 29.781,17.605 8.1016,15.07 -1.7344,34.559 -1.7344,34.559 -2.7734,5.4922 -1.8047,13.859 2.1602,18.57 0,0 5.6562,6.7188 13.035,13.793 7.375,7.043 14.352,12.398 14.352,12.398 2.7891,2.1406 6.7148,3.2539 10.578,3.2539 2.9023,0 5.7617,-0.62891 8.0703,-1.9258 0,0 10.477,-5.8906 22.191,-5.8906 4.0703,0 8.2812,0.71094 12.254,2.625 15.43,7.4258 18.91,28.992 18.91,28.992 0.98438,6.082 6.7188,12.078 12.75,13.332 l 37.477,5.0625 0.77734,0.0234 c 5.957,0 12.609,-4.1367 15.082,-9.5039 0,0 9.1016,-19.797 25.93,-22.844 1.5234,-0.28125 3.0352,-0.40234 4.5312,-0.40234 14.996,0 27.82,12.746 27.82,12.746 2.9219,2.918 7.5703,4.5469 12.012,4.5469 2.1797,0 4.3047,-0.38672 6.1562,-1.2227 l 33.285,-17.965 c 5.207,-3.293 8.4766,-10.93 7.2617,-16.969 0,0 -4.2969,-21.398 7.5391,-33.758 7.6758,-8.0352 19.465,-9.4414 26.785,-9.4414 3.9531,0 6.6094,0.41016 6.6094,0.41016 0.64844,0.10156 1.3164,0.14453 1.9922,0.14453 5.6445,0 11.906,-3.3828 14.637,-8.1523 l 16.477,-34.047 c 2.2617,-5.7305 0.41016,-13.832 -4.1211,-18.004 0,0 -16.082,-14.797 -13.789,-31.773 2.3086,-16.945 21.695,-26.926 21.695,-26.926 5.4805,-2.8164 9.4258,-10.137 8.7656,-16.258 l -6.7266,-37.211 c -1.5195,-5.9688 -7.7617,-11.441 -13.883,-12.152 0,0 -21.707,-2.5312 -29.805,-17.605 -8.1133,-15.086 1.7344,-34.578 1.7344,-34.578 2.7773,-5.5 1.8086,-13.859 -2.1562,-18.57 0,0 -5.6562,-6.7188 -13.043,-13.781 -7.375,-7.0625 -14.348,-12.41 -14.348,-12.41 -2.7891,-2.1406 -6.7148,-3.2539 -10.578,-3.2539 -2.9023,0 -5.7578,0.62891 -8.0625,1.9258 0,0 -10.496,5.9062 -22.215,5.9062 -4.0664,0 -8.2773,-0.71094 -12.246,-2.625 -15.43,-7.4297 -18.906,-29.004002 -18.906,-29.004002 -0.98047,-6.082 -6.7148,-12.078 -12.746,-13.332 l -37.477,-5.0625 z"
       id="path70" />
    <path
       d="m 350.02,201.59 c 20.273,0 39.52,7.7266 54.176,21.758 15.133,14.477 23.723,33.977 24.191,54.914 0.46484,20.934 -7.2539,40.801 -21.727,55.926 -14.938,15.605 -35.066,24.207 -56.68,24.207 -20.277,0 -39.52,-7.7227 -54.176,-21.746 -15.125,-14.477 -23.723,-33.977 -24.18,-54.914 -0.46875,-20.938 7.2461,-40.809 21.723,-55.934 14.93,-15.609 35.062,-24.203 56.672,-24.211 m -0.004,-16.801 c -25.07,0.004 -50.102,9.8516 -68.809,29.398 -36.344,37.992 -35,98.262 2.9922,134.6 18.445,17.648 42.121,26.406 65.781,26.406 25.078,0 50.113,-9.8516 68.82,-29.395 36.348,-37.996 34.996,-98.258 -2.9922,-134.6 -18.445,-17.648 -42.133,-26.414 -65.793,-26.414 z"
       id="path72" />
    <use
       x="70"
       y="644"
       xlink:href="#v"
       id="use74"
       width="100%"
       height="100%" />
    <use
       x="90.550781"
       y="644"
       xlink:href="#d"
       id="use76"
       width="100%"
       height="100%" />
    <use
       x="104.35938"
       y="644"
       xlink:href="#b"
       id="use78"
       width="100%"
       height="100%" />
    <use
       x="123.34766"
       y="644"
       xlink:href="#e"
       id="use80"
       width="100%"
       height="100%" />
    <use
       x="142.24219"
       y="644"
       xlink:href="#c"
       id="use82"
       width="100%"
       height="100%" />
    <use
       x="155.62891"
       y="644"
       xlink:href="#b"
       id="use84"
       width="100%"
       height="100%" />
    <use
       x="174.61719"
       y="644"
       xlink:href="#l"
       id="use86"
       width="100%"
       height="100%" />
    <use
       x="204.41016"
       y="644"
       xlink:href="#k"
       id="use88"
       width="100%"
       height="100%" />
    <use
       x="224.45312"
       y="644"
       xlink:href="#j"
       id="use90"
       width="100%"
       height="100%" />
    <use
       x="252.45312"
       y="644"
       xlink:href="#i"
       id="use92"
       width="100%"
       height="100%" />
    <use
       x="271.55078"
       y="644"
       xlink:href="#a"
       id="use94"
       width="100%"
       height="100%" />
    <use
       x="290.78906"
       y="644"
       xlink:href="#h"
       id="use96"
       width="100%"
       height="100%" />
    <use
       x="319.96094"
       y="644"
       xlink:href="#e"
       id="use98"
       width="100%"
       height="100%" />
    <use
       x="338.85938"
       y="644"
       xlink:href="#u"
       id="use100"
       width="100%"
       height="100%" />
    <use
       x="365.27344"
       y="644"
       xlink:href="#t"
       id="use102"
       width="100%"
       height="100%" />
    <use
       x="386.96875"
       y="644"
       xlink:href="#g"
       id="use104"
       width="100%"
       height="100%" />
    <use
       x="406.90234"
       y="644"
       xlink:href="#a"
       id="use106"
       width="100%"
       height="100%" />
    <use
       x="426.14062"
       y="644"
       xlink:href="#f"
       id="use108"
       width="100%"
       height="100%" />
    <use
       x="446.17969"
       y="644"
       xlink:href="#f"
       id="use110"
       width="100%"
       height="100%" />
    <use
       x="70"
       y="672"
       xlink:href="#s"
       id="use112"
       width="100%"
       height="100%" />
    <use
       x="82.183594"
       y="672"
       xlink:href="#d"
       id="use114"
       width="100%"
       height="100%" />
    <use
       x="95.992188"
       y="672"
       xlink:href="#a"
       id="use116"
       width="100%"
       height="100%" />
    <use
       x="115.22656"
       y="672"
       xlink:href="#h"
       id="use118"
       width="100%"
       height="100%" />
    <use
       x="154.15234"
       y="672"
       xlink:href="#c"
       id="use120"
       width="100%"
       height="100%" />
    <use
       x="167.53516"
       y="672"
       xlink:href="#r"
       id="use122"
       width="100%"
       height="100%" />
    <use
       x="187.46875"
       y="672"
       xlink:href="#b"
       id="use124"
       width="100%"
       height="100%" />
    <use
       x="216.20703"
       y="672"
       xlink:href="#q"
       id="use126"
       width="100%"
       height="100%" />
    <use
       x="239.64062"
       y="672"
       xlink:href="#a"
       id="use128"
       width="100%"
       height="100%" />
    <use
       x="258.87891"
       y="672"
       xlink:href="#p"
       id="use130"
       width="100%"
       height="100%" />
    <use
       x="278.8125"
       y="672"
       xlink:href="#g"
       id="use132"
       width="100%"
       height="100%" />
    <use
       x="308.49219"
       y="672"
       xlink:href="#o"
       id="use134"
       width="100%"
       height="100%" />
    <use
       x="329.01562"
       y="672"
       xlink:href="#d"
       id="use136"
       width="100%"
       height="100%" />
    <use
       x="342.82031"
       y="672"
       xlink:href="#a"
       id="use138"
       width="100%"
       height="100%" />
    <use
       x="362.05859"
       y="672"
       xlink:href="#n"
       id="use140"
       width="100%"
       height="100%" />
    <use
       x="371.65625"
       y="672"
       xlink:href="#b"
       id="use142"
       width="100%"
       height="100%" />
    <use
       x="390.64844"
       y="672"
       xlink:href="#m"
       id="use144"
       width="100%"
       height="100%" />
    <use
       x="407.24219"
       y="672"
       xlink:href="#c"
       id="use146"
       width="100%"
       height="100%" />
  </g>
</svg>
