<svg xmlns="http://www.w3.org/2000/svg" version="1.1" viewBox="-5.0 -10.0 110.0 120.0">
 <path d="m46.91 27.43h6.1797c1.1094 0 2 0.89062 2 2l0.17188 2.5117c0.66016 0.19922 1.3086 0.42188 1.9297 0.67969 0.64062 0.26953 1.2617 0.57031 1.8594 0.89844l2-1.75c0.78906-0.69922 1.9805-0.64844 2.7188 0.089844l4.3789 4.3711c0.78125 0.78125 0.78125 2.0508 0 2.8281l-1.6719 1.8906c0.32813 0.60156 0.62891 1.2188 0.89844 1.8594 0.26172 0.62109 0.48047 1.2695 0.67969 1.9297l2.6406 0.17969c1.0508 0.058593 1.8711 0.94141 1.8711 1.9883v6.1797c0 1.1094-0.89062 2.0117-2 2.0117l-2.5117 0.16016c-0.19922 0.67188-0.42188 1.3086-0.67969 1.9414-0.26953 0.62891-0.57031 1.25-0.89844 1.8516l1.75 2c0.69922 0.78906 0.64844 1.9805-0.089843 2.7188l-4.3711 4.3789c-0.78125 0.78125-2.0508 0.78125-2.8281 0l-1.8906-1.6602c-0.60156 0.32812-1.2188 0.62891-1.8594 0.89062-0.62109 0.26172-1.2695 0.48828-1.9297 0.67969l-0.17969 2.6406c-0.058594 1.0586-0.94141 1.8711-1.9883 1.8711h-6.1797c-1.1094 0-2.0117-0.89062-2.0117-2l-0.16016-2.5117c-0.67188-0.19141-1.3086-0.42188-1.9414-0.67969-0.62891-0.26172-1.25-0.55859-1.8516-0.89062l-2 1.75c-0.78906 0.69141-1.9805 0.64062-2.7188-0.089843l-4.3789-4.3789c-0.78125-0.78125-0.78125-2.0391 0-2.8203l1.6602-1.8984c-0.32812-0.60156-0.62891-1.2188-0.89062-1.8516-0.26172-0.62891-0.48828-1.2695-0.67969-1.9414l-2.6406-0.17187c-1.0586-0.070313-1.8711-0.94922-1.8711-2v-6.1797c0-1.1094 0.89062-2 2-2l2.5117-0.17188c0.19141-0.66016 0.42188-1.3086 0.67969-1.9297 0.26172-0.64063 0.55859-1.2617 0.89062-1.8594l-1.75-2c-0.69141-0.78906-0.64062-1.9805 0.089844-2.7188l4.3789-4.3789c0.78125-0.78125 2.0391-0.78125 2.8203 0l1.8984 1.6719c0.60156-0.32812 1.2188-0.62891 1.8516-0.89844 0.62891-0.26172 1.2695-0.48047 1.9414-0.67969l0.17188-2.6406c0.070313-1.0508 0.94922-1.8711 2-1.8711zm0.23828 67.57c0 1.1016-0.89844 2-2 2-1.1094 0-2-0.89844-2-2v-5.6406h-5.7109v5.6406c0 1.1016-0.89062 2-2 2-1.1016 0-2-0.89844-2-2v-5.6406h-5.6992v5.6406c0 1.1016-0.89844 2-2 2-1.1094 0-2.0117-0.89844-2.0117-2v-5.6406h-0.44141c-3.4805 0-6.6406-1.4219-8.9297-3.7109-2.3008-2.3008-3.7188-5.4609-3.7188-8.9414v-0.44141h-5.6406c-1.1016 0-2-0.89844-2-2.0117 0-1.1016 0.89844-2 2-2h5.6406v-5.6992h-5.6406c-1.1016 0-2-0.89844-2-2 0-1.1016 0.89844-2 2-2h5.6406v-5.6992h-5.6406c-1.1016 0-2-0.89844-2-2 0-1.1094 0.89844-2.0117 2-2.0117h5.6406v-5.6992h-5.6406c-1.1016 0-2-0.89844-2-2 0-1.1016 0.89844-2 2-2h5.6406v-5.6992h-5.6406c-1.1016 0-2-0.89844-2-2 0-1.1094 0.89844-2.0117 2-2.0117h5.6406v-5.6992h-5.6406c-1.1016 0-2-0.89844-2-2 0-1.1094 0.89844-2 2-2h5.6406v-0.44922c0-3.4805 1.4219-6.6406 3.7109-8.9297 2.3008-2.3008 5.4609-3.7188 8.9414-3.7188h0.44141v-5.6406c0-1.1016 0.89844-2 2.0117-2 1.1016 0 2 0.89844 2 2v5.6406h5.6992v-5.6406c0-1.1016 0.89844-2 2-2 1.1094 0 2 0.89844 2 2v5.6406h5.7109v-5.6406c0-1.1016 0.89062-2 2-2 1.1016 0 2 0.89844 2 2v5.6406h5.6992v-5.6406c0-1.1016 0.89844-2 2-2 1.1094 0 2 0.89844 2 2v5.6406h5.7109v-5.6406c0-1.1016 0.89062-2 2-2 1.1016 0 2 0.89844 2 2v5.6406h5.6992v-5.6406c0-1.1016 0.89844-2 2-2 1.1094 0 2 0.89844 2 2v5.6406h0.44922c3.4805 0 6.6406 1.4219 8.9297 3.7109 2.3008 2.3008 3.7188 5.4609 3.7188 8.9414v0.44922h5.6406c1.1016 0 2 0.89062 2 2 0 1.1016-0.89844 2-2 2h-5.6406v5.6992h5.6406c1.1016 0 2 0.89844 2 2.0117 0 1.1016-0.89844 2-2 2h-5.6406v5.6992h5.6406c1.1016 0 2 0.89844 2 2 0 1.1016-0.89844 2-2 2h-5.6406v5.6992h5.6406c1.1016 0 2 0.89844 2 2.0117 0 1.1016-0.89844 2-2 2h-5.6406v5.6992h5.6406c1.1016 0 2 0.89844 2 2 0 1.1016-0.89844 2-2 2h-5.6406v5.6992h5.6406c1.1016 0 2 0.89844 2 2 0 1.1094-0.89844 2.0117-2 2.0117h-5.6406v0.44141c0 3.4805-1.4219 6.6406-3.7109 8.9297-2.3008 2.3008-5.4609 3.7188-8.9414 3.7188h-0.44922v5.6406c0 1.1016-0.89062 2-2 2-1.1016 0-2-0.89844-2-2v-5.6406h-5.6992v5.6406c0 1.1016-0.89844 2-2 2-1.1094 0-2-0.89844-2-2v-5.6406h-5.7109v5.6406c0 1.1016-0.89062 2-2 2-1.1016 0-2-0.89844-2-2v-5.6406h-5.6992zm-21.891-75.309h49.469c1.5391 0 2.9297 0.62891 3.9414 1.6406s1.6289 2.3984 1.6289 3.9414v49.461c0 1.5391-0.62109 2.9297-1.6289 3.9414-1.0117 1.0117-2.3984 1.6406-3.9414 1.6406h-49.469c-1.5312 0-2.9219-0.62891-3.9297-1.6406-1.0117-1.0117-1.6406-2.3984-1.6406-3.9414v-49.461c0-1.5391 0.62891-2.9297 1.6406-3.9414s2.3984-1.6406 3.9297-1.6406zm49.469 4.0117h-49.469c-0.42969 0-0.82031 0.17188-1.1094 0.46094-0.28125 0.28125-0.46094 0.67969-0.46094 1.1094v49.461c0 0.44141 0.17969 0.82812 0.46094 1.1094 0.28906 0.28906 0.67969 0.46875 1.1094 0.46875h49.469c0.42969 0 0.82813-0.17969 1.1094-0.46875 0.28906-0.28125 0.46094-0.67188 0.46094-1.1094v-49.461c0-0.42969-0.17188-0.82813-0.46094-1.1094-0.28125-0.28906-0.67969-0.46094-1.1094-0.46094zm1.9805-9.0586h-53.422c-2.3789 0-4.5508 0.96875-6.1211 2.5391-1.5586 1.5586-2.5312 3.7305-2.5312 6.1094v53.422c0 2.3789 0.96875 4.5508 2.5312 6.1211 1.5703 1.5586 3.7383 2.5312 6.1211 2.5312h53.422c2.3789 0 4.5508-0.96875 6.1094-2.5312 1.5703-1.5703 2.5391-3.7383 2.5391-6.1211v-53.422c0-2.3789-0.96875-4.5508-2.5391-6.1094-1.5586-1.5703-3.7305-2.5391-6.1094-2.5391zm-25.488 16.789h-2.4492l-0.14062 2.2188c-0.058594 0.87891-0.69922 1.6484-1.6016 1.8281-0.92188 0.19141-1.8281 0.46875-2.6992 0.82812s-1.7109 0.80859-2.5 1.3281c-0.73047 0.48047-1.7188 0.44141-2.4102-0.16016l-1.6914-1.4805-1.7305 1.7383 1.3984 1.6016c0.64844 0.64844 0.76953 1.6992 0.23828 2.5-0.51953 0.78125-0.96875 1.6211-1.3281 2.5-0.35156 0.83984-0.62109 1.7109-0.80859 2.6016-0.14062 0.91016-0.89062 1.6289-1.8516 1.6914l-2.2188 0.14844v2.4492l2.2188 0.14063c0.87891 0.058593 1.6484 0.69922 1.8281 1.6016 0.19141 0.92188 0.46875 1.8281 0.82812 2.6992 0.35938 0.87109 0.80859 1.7109 1.3281 2.5 0.48047 0.73047 0.44141 1.7188-0.17188 2.4102l-1.4688 1.6914 1.7305 1.7305 1.6016-1.3984c0.66016-0.64844 1.6992-0.76953 2.5-0.23828 0.78906 0.51953 1.6289 0.96875 2.5 1.3281 0.83984 0.35156 1.7109 0.62109 2.6094 0.80859 0.89844 0.14062 1.6289 0.89062 1.6914 1.8516l0.14062 2.2188h2.4492l0.14844-2.2188c0.058594-0.87891 0.69141-1.6484 1.6016-1.8281 0.92187-0.19141 1.8203-0.46875 2.6914-0.82813 0.87891-0.35937 1.7188-0.80859 2.5-1.3281 0.73047-0.48047 1.7305-0.44141 2.4219 0.17187l1.6797 1.4688 1.7383-1.7305-1.3984-1.6016c-0.64844-0.66016-0.76953-1.6992-0.23828-2.5 0.51953-0.78906 0.96875-1.6289 1.3281-2.5 0.35156-0.83984 0.62109-1.7109 0.80859-2.6094 0.14062-0.89844 0.89062-1.6289 1.8516-1.6914l2.2188-0.14062v-2.4492l-2.2188-0.14844c-0.87891-0.058594-1.6484-0.69141-1.8281-1.6016-0.19141-0.92188-0.46875-1.8203-0.82812-2.6914-0.35938-0.87891-0.80859-1.7188-1.3281-2.5-0.48047-0.73047-0.44141-1.7305 0.16016-2.4219l1.4805-1.6797-1.7383-1.7383-1.6016 1.3984c-0.64844 0.64844-1.6992 0.76953-2.5 0.23828-0.78125-0.51953-1.6211-0.96875-2.5-1.3281-0.83984-0.35156-1.7109-0.62109-2.6016-0.80859-0.91016-0.14062-1.6289-0.89062-1.6914-1.8516zm-1.2188 6.9805c3.1914 0 6.0898 1.3008 8.1914 3.3984l0.011719 0.011719c2.0898 2.1016 3.3906 4.9883 3.3906 8.1797s-1.3008 6.0898-3.3984 8.1914l-0.011718 0.011719c-2.1016 2.1016-4.9883 3.3906-8.1797 3.3906s-6.0898-1.3008-8.1914-3.3906l-0.011719-0.011719c-2.1016-2.1094-3.3906-5-3.3906-8.1914s1.3008-6.0898 3.3906-8.1914l0.011719-0.011719c2.1094-2.0898 5-3.3906 8.1914-3.3906zm5.3711 6.2188c-1.3711-1.3711-3.2695-2.2188-5.3711-2.2188s-4 0.85156-5.3711 2.2188c-1.3711 1.3711-2.2188 3.2695-2.2188 5.3711 0 2.1016 0.85156 4 2.2109 5.3711 1.3789 1.3711 3.2812 2.2188 5.3789 2.2188 2.1016 0 4-0.85156 5.3711-2.2109 1.3711-1.3789 2.2188-3.2812 2.2188-5.3789 0-2.1016-0.85156-4-2.2188-5.3711z"/>
<text x="0.0" y="117.5" font-size="5.0" font-weight="bold" font-family="Arbeit Regular, Helvetica, Arial-Unicode, Arial, Sans-serif" fill="#000000">Created by Yuniarti Pahlevie</text><text x="0.0" y="122.5" font-size="5.0" font-weight="bold" font-family="Arbeit Regular, Helvetica, Arial-Unicode, Arial, Sans-serif" fill="#000000">from Noun Project</text></svg>
