<?xml version="1.0" encoding="UTF-8"?>
<svg width="1200pt" height="1200pt" version="1.1" viewBox="0 0 1200 1200" xmlns="http://www.w3.org/2000/svg">
 <path d="m803.16 807.72c54.328-42.695 93.996-101.27 113.48-167.56 19.484-66.297 17.816-137.02-4.7734-202.32-22.59-65.301-64.977-121.94-121.26-162.02-56.281-40.086-123.66-61.625-192.76-61.625s-136.48 21.539-192.76 61.625c-56.285 40.086-98.672 96.723-121.26 162.02-22.59 65.305-24.258 136.02-4.7734 202.32 19.48 66.293 59.148 124.87 113.48 167.56-28.32 76.68-44.52 117.24-66.121 163.44-5.5664 12.246-5.957 26.223-1.0781 38.762 4.7695 12.25 14.355 22.012 26.52 27 80.98 33.688 167.77 51.219 255.48 51.598 82.406 0.51953 163.95-16.797 239.04-50.758 11.668-5.3633 20.699-15.172 25.082-27.242 4.543-12.262 3.9805-25.836-1.5625-37.68-21.48-46.559-38.039-87.48-66.719-165.12zm-513.24-261.24c-0.13281-70.621 23.988-139.14 68.324-194.11 44.336-54.965 106.2-93.047 175.25-107.87 69.047-14.824 141.09-5.4922 204.08 26.438 62.988 31.926 113.11 84.512 141.98 148.96 28.863 64.453 34.727 136.86 16.609 205.11-18.121 68.258-59.129 128.22-116.16 169.87-52.574 38.934-116.26 59.949-181.68 59.949-65.418 0-129.11-21.016-181.68-59.949l-2.6406-2.8789h-1.4414c-37.957-28.723-68.773-65.824-90.047-108.41-21.273-42.586-32.426-89.508-32.59-137.11zm558.96 456h-0.003906c-2.0469 5.957-6.3594 10.871-12 13.68-140.04 63.84-317.76 63.84-475.92-1.4414-5.9805-2.5742-10.66-7.4688-12.961-13.559-2.6953-6.3672-2.6953-13.555 0-19.922 21-45.602 37.32-85.559 64.559-159.36 54.684 37.156 119.29 56.977 185.4 56.883h2.0391c65.391 0.20703 129.36-19.098 183.72-55.441 27.238 73.68 43.68 113.76 64.801 159.6 2.6328 6.1445 2.7617 13.078 0.35938 19.316zm-322.44-36 72 72 72-72-72-72zm72 37.68-38.043-38.039 37.801-37.801 37.801 37.801zm-150-107.64c-11.633-0.0625-22.809 4.5-31.07 12.688-8.2617 8.1875-12.93 19.32-12.973 30.953-0.039063 11.629 4.543 22.801 12.746 31.047 8.1992 8.2461 19.344 12.891 30.977 12.914 11.629 0.019531 22.789-4.5859 31.023-12.801 8.2305-8.2188 12.855-19.371 12.855-31-0.03125-11.566-4.6211-22.652-12.777-30.852-8.1562-8.2031-19.219-12.855-30.781-12.949zm0 63.602c-5.2656 0.0625-10.34-1.9727-14.102-5.6562-3.7578-3.6875-5.8984-8.7188-5.9375-13.984-0.042969-5.2617 2.0117-10.328 5.7109-14.074s8.7422-5.8633 14.004-5.8828c5.2656-0.023438 10.324 2.0547 14.055 5.7695 3.7305 3.7148 5.8281 8.7617 5.8281 14.027-0.03125 5.1875-2.0977 10.16-5.7578 13.84-3.6562 3.6797-8.6133 5.7773-13.801 5.8398zm300-63.602c-11.633-0.0625-22.809 4.5-31.07 12.688-8.2617 8.1875-12.93 19.32-12.973 30.953-0.039063 11.629 4.543 22.801 12.746 31.047 8.1992 8.2461 19.344 12.891 30.977 12.914 11.629 0.019531 22.789-4.5859 31.023-12.801 8.2305-8.2188 12.855-19.371 12.855-31-0.03125-11.668-4.707-22.848-12.992-31.062-8.2852-8.2188-19.5-12.801-31.168-12.738zm0 63.602c-5.2656 0.0625-10.34-1.9727-14.102-5.6562-3.7578-3.6875-5.8984-8.7188-5.9375-13.984-0.042969-5.2617 2.0117-10.328 5.7109-14.074s8.7422-5.8633 14.004-5.8828c5.2656-0.023438 10.324 2.0547 14.055 5.7695 3.7305 3.7148 5.8281 8.7617 5.8281 14.027-0.03125 5.293-2.1797 10.355-5.9688 14.051-3.7891 3.6992-8.8984 5.7266-14.191 5.6289zm-57-676.8c1.1719-2.9609 3.4805-5.3359 6.4062-6.5938 2.9258-1.2617 6.2344-1.3086 9.1914-0.125 66.574 26.91 120.82 77.527 152.28 142.08 2.9453 5.9336 0.52734 13.129-5.3984 16.082-1.6484 0.79688-3.4531 1.207-5.2812 1.1992-4.5898 0.007812-8.7812-2.6016-10.801-6.7227-29.02-59.301-79.004-105.73-140.28-130.32-2.9609-1.1758-5.332-3.4805-6.5938-6.4102-1.2617-2.9258-1.3047-6.2305-0.125-9.1914zm-104.64-15.48c0-6.6289 5.3711-12 12-12 17.418 0.011718 34.805 1.5391 51.961 4.5586 6.625 0.59766 11.516 6.4531 10.918 13.082-0.59766 6.625-6.4531 11.516-13.078 10.918h-2.1602c-15.848-2.8008-31.91-4.207-48-4.1992-3.2891 0.066406-6.4609-1.2148-8.7734-3.5547-2.3125-2.3359-3.5664-5.5195-3.4688-8.8047zm-3.1211-90.121-1.3203-53.641c0-6.625 5.375-12 12-12 3.1836 0 6.2344 1.2656 8.4844 3.5156 2.2539 2.25 3.5156 5.3047 3.5156 8.4844l1.3203 53.641c0 3.1836-1.2656 6.2344-3.5156 8.4883-2.25 2.25-5.3008 3.5117-8.4844 3.5117-3.2852 0.16406-6.4922-1.0273-8.875-3.293-2.3828-2.2695-3.7305-5.418-3.7266-8.707zm-63.84 8.5195-10.559-52.559c-1.293-6.6289 3.0312-13.047 9.6602-14.34 6.625-1.293 13.047 3.0312 14.34 9.6602l10.559 52.441c0.63672 3.1172 0.007812 6.3633-1.7461 9.0195-1.7539 2.6523-4.4961 4.5039-7.6133 5.1406-0.79688 0.11719-1.6055 0.11719-2.4023 0-6.0273 0.56641-11.531-3.4492-12.84-9.3633zm-81.48-30.238c-1.3242-2.9922-1.3711-6.3945-0.12891-9.4219 1.2422-3.0273 3.668-5.418 6.7148-6.6133 3.0469-1.1953 6.4492-1.0938 9.4219 0.27734 2.9688 1.375 5.25 3.9023 6.3125 6.9961l19.32 49.684c1.1797 2.957 1.1367 6.2656-0.125 9.1914s-3.6328 5.2305-6.5938 6.4062c-1.4141 0.55859-2.9219 0.84375-4.4414 0.83984-4.9492-0.015625-9.3789-3.0625-11.16-7.6797zm-65.398 33.961c-3.4219-5.6367-1.6523-12.98 3.9609-16.441 2.7148-1.6797 5.9922-2.207 9.1016-1.4648 3.1094 0.74219 5.793 2.6953 7.457 5.4258l27.961 45.719c1.7578 2.7383 2.3281 6.0742 1.582 9.2422-0.74609 3.168-2.7461 5.8945-5.543 7.5586-1.9102 1.1836-4.1133 1.8086-6.3594 1.8008-4.1719-0.019531-8.0312-2.1992-10.199-5.7617zm-58.441 44.879c-4.4062-4.9688-3.9492-12.574 1.0195-16.98 4.9727-4.4062 12.574-3.9492 16.98 1.0195l35.398 40.199h0.003906c4.3672 4.9766 3.8828 12.543-1.082 16.922-2.1875 1.9297-5.0039 2.9961-7.918 3-3.4297 0.027344-6.707-1.4141-9-3.9609zm-49.801 54.238c-5.1445-4.1211-6.0039-11.621-1.918-16.797 1.9805-2.5078 4.8828-4.1211 8.0586-4.4844 3.1758-0.35938 6.3672 0.5625 8.8594 2.5625l41.883 33.242c2.5781 1.9102 4.2852 4.7773 4.7383 7.957 0.44922 3.1797-0.39062 6.4062-2.3398 8.9609-2.2656 2.8672-5.707 4.543-9.3594 4.5586-2.707-0.015625-5.3281-0.94531-7.4414-2.6367zm-44.398 45.84v0.003906c3.168-5.7773 10.398-7.918 16.199-4.8008l47.039 25.68c5.832 3.1484 8.0078 10.426 4.8633 16.258-3.1484 5.832-10.43 8.0078-16.262 4.8633l-47.039-25.68v-0.003907c-2.8398-1.5195-4.9492-4.1211-5.8516-7.2109-0.90234-3.0938-0.52344-6.418 1.0508-9.2266zm-31.078 69.238-0.003907 0.003906c1.8594-6.3008 8.4375-9.9375 14.762-8.1602l50.762 17.039c6.5938 0.76172 11.32 6.7266 10.559 13.32-0.76172 6.5938-6.7266 11.324-13.32 10.562-1.2734 0.17969-2.5664 0.17969-3.8398 0l-51.359-17.762c-6.2461-2.1094-9.6211-8.8594-7.5625-15.121zm-18.48 73.441v0.003906c1.2148-6.3711 7.2734-10.625 13.68-9.6016l53.039 8.0391c3.1523 0.47266 5.9883 2.1836 7.8789 4.75 1.8906 2.5664 2.6836 5.7812 2.1992 8.9297-0.89453 5.918-6.0156 10.27-12 10.203h-1.8008l-53.039-8.0391v-0.003906c-3.2812-0.48828-6.2109-2.3125-8.0977-5.043-1.8867-2.7266-2.5625-6.1133-1.8594-9.3555zm6.6016 87.238-0.003906 0.003906c-6.625 0-12-5.3711-12-12s5.375-12 12-12l53.281-0.83984c3.1836 0 6.2344 1.2656 8.4844 3.5156s3.5156 5.3008 3.5156 8.4844-1.2656 6.2344-3.5156 8.4844-5.3008 3.5156-8.4844 3.5156l-53.641 1.3203zm62.637 62.402-52.559 10.559v0.003906c-0.79688 0.11719-1.6055 0.11719-2.4023 0-6.625 0.62891-12.508-4.2344-13.141-10.859-0.62891-6.6289 4.2344-12.512 10.863-13.141l52.441-10.559-0.003906-0.003907c6.6289-1.3242 13.074 2.9727 14.402 9.6016 1.3242 6.6289-2.9727 13.074-9.6016 14.398zm19.441 61.32-50.043 19.441c-1.4102 0.55859-2.918 0.84375-4.4375 0.83984-5.7695 0.015625-10.73-4.0781-11.816-9.7422-1.0859-5.6641 2.0117-11.297 7.375-13.418l49.922-19.559c2.9922-1.3281 6.3945-1.375 9.4219-0.13281 3.0273 1.2461 5.4141 3.6719 6.6094 6.7188 1.1953 3.0469 1.0977 6.4492-0.27734 9.418-1.3711 2.9727-3.8984 5.2539-6.9961 6.3164zm29.879 57-45.719 27.961c-1.875 1.1641-4.0352 1.7852-6.2422 1.8008-4.2109 0.023438-8.1289-2.1602-10.32-5.7617-1.6719-2.7305-2.1797-6.0195-1.4141-9.1289 0.76562-3.1094 2.7461-5.7852 5.4961-7.4297l45.719-27.961c5.668-3.3984 13.02-1.5742 16.441 4.082 3.3789 5.6992 1.4961 13.059-4.2031 16.438zm39.238 51-40.199 36c-2.1875 1.9297-5.0039 2.9961-7.918 3-3.4492-0.003906-6.7266-1.4883-9-4.0781-4.3672-4.9727-3.8867-12.543 1.0781-16.922l40.199-36c2.3633-2.2656 5.5469-3.4727 8.8164-3.332 3.2695 0.13672 6.3438 1.6016 8.5078 4.0586 2.1602 2.4609 3.2266 5.6914 2.9453 8.9531-0.27734 3.2617-1.8789 6.2695-4.4297 8.3203zm606.72 7.4414c2.5938 1.9492 4.2891 4.8711 4.6953 8.0938 0.40625 3.2188-0.50781 6.4688-2.5391 9.0039s-5.0039 4.1367-8.2344 4.4453c-3.2344 0.30469-6.4531-0.71484-8.9219-2.8242l-41.883-33.359c-2.4883-2-4.0781-4.9102-4.4141-8.0859-0.33984-3.1758 0.60156-6.3555 2.6172-8.832 4.1562-5.1094 11.652-5.9141 16.797-1.8008zm44.398-45.84c-3.168 5.7734-10.398 7.918-16.199 4.8008l-47.039-25.68c-3.1094-1.3281-5.5117-3.9023-6.6211-7.0938-1.1094-3.1875-0.82422-6.6992 0.78516-9.668 1.6133-2.9688 4.4023-5.1211 7.6797-5.9258 3.2812-0.80859 6.75-0.19531 9.5547 1.6875l47.039 25.559c2.8086 1.5234 4.8906 4.1016 5.793 7.1641s0.54297 6.3555-0.99219 9.1562zm31.078-69.121h0.003907c-1.7188 5.1055-6.625 8.4414-12 8.1602-1.3047-0.015625-2.5977-0.21484-3.8398-0.59766l-50.762-17.16c-3.2734-0.78125-6.0703-2.8984-7.707-5.8398-1.6367-2.9414-1.9648-6.4375-0.89844-9.6289 1.0625-3.1953 3.4219-5.793 6.4961-7.1641 3.0742-1.375 6.582-1.3906 9.668-0.046875l50.879 17.039h0.003906c3.1367 0.88281 5.7812 3.0078 7.3203 5.8828s1.8398 6.2539 0.83984 9.3555zm18.48-73.559c-0.89453 5.9141-6.0156 10.266-12 10.199h-1.8008l-53.039-7.9219v0.003907c-6.625-0.99609-11.191-7.1758-10.199-13.801 0.99609-6.6289 7.1719-11.195 13.801-10.199l53.039 7.9219v-0.003906c3.1992 0.44531 6.0859 2.1562 8.0039 4.7539 1.9219 2.5977 2.7109 5.8594 2.1953 9.0469zm5.4023-75.48c0 3.1836-1.2656 6.2344-3.5156 8.4844s-5.3008 3.5156-8.4844 3.5156l-53.641 1.3203c-6.6289 0-12-5.3711-12-12 0-6.6289 5.3711-12 12-12l53.398-1.3203c3.2266-0.066406 6.3398 1.1719 8.6406 3.4297 2.3047 2.2578 3.6016 5.3438 3.6016 8.5703zm-74.641-74.281 52.559-10.559c6.6289-1.293 13.051 3.0312 14.34 9.6602 1.293 6.6289-3.0312 13.047-9.6602 14.34l-52.441 10.68h-2.3984c-6.625 0.66406-12.535-4.1719-13.199-10.801-0.66016-6.625 4.1719-12.535 10.801-13.199zm-19.199-61.32 49.801-19.559c6.1602-2.4531 13.145 0.55859 15.598 6.7188 2.4531 6.1641-0.55469 13.148-6.7188 15.602l-49.922 19.68c-1.4297 0.47266-2.9297 0.71484-4.4375 0.71875-5.7461-0.042969-10.656-4.1484-11.707-9.7969-1.0547-5.6484 2.043-11.25 7.3867-13.363zm-29.879-56.398 45.719-27.961c2.7266-2.1484 6.25-3.0078 9.6602-2.3633 3.4102 0.64453 6.3711 2.7344 8.125 5.7305 1.7539 2.9961 2.1211 6.6055 1.0117 9.8945-1.1094 3.2891-3.5898 5.9375-6.7969 7.2578l-44.641 27.363c-1.875 1.1602-4.0352 1.7812-6.2383 1.7969-5.168-0.082031-9.6992-3.4648-11.254-8.3945-1.5508-4.9258 0.22656-10.297 4.4141-13.324zm-39.238-50.879 40.199-36h-0.003906c2.3633-2.2695 5.5469-3.4727 8.8164-3.3359 3.2695 0.13672 6.3438 1.6055 8.5078 4.0625 2.1602 2.457 3.2266 5.6914 2.9453 8.9531s-1.8789 6.2656-4.4297 8.3203l-40.199 36c-2.1875 1.9297-5.0039 2.9961-7.918 3-3.4492-0.003906-6.7266-1.4922-9-4.082-2.293-2.4141-3.4766-5.6719-3.2695-8.9922 0.20312-3.3242 1.7773-6.4102 4.3477-8.5273zm-45.723-27.121c-2.5078-1.9844-4.1211-4.8828-4.4805-8.0586-0.36328-3.1797 0.55859-6.3672 2.5586-8.8633l33.48-41.879c1.8125-2.9375 4.8047-4.9492 8.207-5.5273 3.4023-0.57422 6.8867 0.33984 9.5664 2.5156 2.6797 2.1758 4.293 5.3984 4.4297 8.8477 0.13281 3.4453-1.2227 6.7852-3.7227 9.1641l-33.359 41.879c-2.2891 2.8203-5.7305 4.4531-9.3594 4.4414-2.6445-0.058593-5.2031-0.9375-7.3203-2.5195zm-56.281-51.359 25.68-47.039c3.1484-5.832 10.43-8.0078 16.262-4.8633 5.832 3.1484 8.0078 10.43 4.8594 16.262l-25.68 47.16c-2.1133 3.8594-6.1641 6.25-10.562 6.2383-2.0039-0.023438-3.9766-0.51563-5.7578-1.4375-2.8086-1.5234-4.8906-4.1016-5.793-7.1641-0.89844-3.0625-0.54297-6.3594 0.99219-9.1562zm-60-24 17.641-50.641c2.4766-5.7031 8.9023-8.5664 14.801-6.6016 5.8984 1.9648 9.3164 8.1133 7.8789 14.16l-17.039 50.879v0.003906c-1.6523 4.8867-6.2422 8.1719-11.402 8.1602-1.3008-0.035156-2.5898-0.23437-3.8398-0.60156-3.1719-1-5.7891-3.2734-7.2227-6.2773s-1.5547-6.4648-0.33594-9.5625zm-61.68-14.641 7.9219-53.039c0.99219-6.6289 7.1719-11.195 13.797-10.199 6.6289 0.99219 11.195 7.1719 10.203 13.797l-8.0391 53.039-0.003906 0.003906c-0.89453 5.9141-6.0156 10.266-12 10.199h-1.8008c-3.1758-0.47266-6.0312-2.1992-7.9258-4.793-1.8945-2.5938-2.668-5.8359-2.1523-9.0078zm-49.199 492c97.199 0 174.36-114 177.6-118.8l4.4414-6.7188-4.4414-6.4805c-3.2383-4.8008-80.039-118.8-178.2-118.8-98.16 0-175.08 113.88-178.2 118.8l-4.3203 6.6016 4.3203 6.7188c3.1211 4.6797 79.922 118.68 178.2 118.68zm0-226.92c72.719 0 136.08 77.879 153.48 101.4-18 23.523-81.359 101.52-154.08 101.52-72.719 0-136.08-78-153.48-101.52 17.402-23.52 80.641-101.4 153.48-101.4zm0 190.8c23.711 0 46.449-9.418 63.215-26.184 16.766-16.766 26.184-39.504 26.184-63.215 0-23.711-9.418-46.449-26.184-63.215s-39.504-26.188-63.215-26.188c-23.711 0-46.449 9.4219-63.215 26.188-16.766 16.766-26.188 39.504-26.188 63.215-0.03125 23.629 9.293 46.305 25.93 63.082 16.641 16.773 39.246 26.277 62.871 26.438zm0-154.68c17.352 0 33.992 6.8984 46.258 19.172 12.266 12.273 19.152 28.918 19.141 46.27s-6.9141 33.988-19.195 46.246c-12.281 12.258-28.934 19.133-46.285 19.113s-33.984-6.9375-46.234-19.227c-12.25-12.289-19.117-28.941-19.086-46.293 0.03125-17.223 6.8555-33.734 18.988-45.957 12.129-12.223 28.594-19.164 45.812-19.324zm0 100.2c9.2617 0 18.145-3.6758 24.691-10.227 6.5469-6.5469 10.227-15.43 10.227-24.691s-3.6797-18.145-10.227-24.691c-6.5469-6.5508-15.43-10.23-24.691-10.23s-18.145 3.6797-24.691 10.23c-6.5508 6.5469-10.23 15.43-10.23 24.691-0.03125 9.168 3.5547 17.977 9.9805 24.516 6.4258 6.5391 15.172 10.277 24.34 10.402zm0-45.719c5.5586 0.58594 9.7773 5.2734 9.7773 10.859 0 5.5898-4.2188 10.277-9.7773 10.859-3.0781 0.32422-6.1484-0.67188-8.4492-2.7422-2.3008-2.0703-3.6133-5.0195-3.6133-8.1172 0-3.0938 1.3125-6.043 3.6133-8.1133 2.3008-2.0742 5.3711-3.0703 8.4492-2.7461z"/>
</svg>
