<?xml version="1.0" encoding="UTF-8" standalone="no"?>
<svg
   xmlns:dc="http://purl.org/dc/elements/1.1/"
   xmlns:cc="http://creativecommons.org/ns#"
   xmlns:rdf="http://www.w3.org/1999/02/22-rdf-syntax-ns#"
   xmlns:svg="http://www.w3.org/2000/svg"
   xmlns="http://www.w3.org/2000/svg"
   xmlns:xlink="http://www.w3.org/1999/xlink"
   xmlns:sodipodi="http://sodipodi.sourceforge.net/DTD/sodipodi-0.dtd"
   xmlns:inkscape="http://www.inkscape.org/namespaces/inkscape"
   width="600pt"
   height="600pt"
   version="1.1"
   viewBox="0 0 600 600"
   id="svg123"
   sodipodi:docname="memory.svg"
   inkscape:version="1.0.1 (3bc2e813f5, 2020-09-07)">
  <metadata
     id="metadata127">
    <rdf:RDF>
      <cc:Work
         rdf:about="">
        <dc:format>image/svg+xml</dc:format>
        <dc:type
           rdf:resource="http://purl.org/dc/dcmitype/StillImage" />
        <dc:title></dc:title>
      </cc:Work>
    </rdf:RDF>
  </metadata>
  <sodipodi:namedview
     pagecolor="#ffffff"
     bordercolor="#666666"
     borderopacity="1"
     objecttolerance="10"
     gridtolerance="10"
     guidetolerance="10"
     inkscape:pageopacity="0"
     inkscape:pageshadow="2"
     inkscape:window-width="1627"
     inkscape:window-height="1302"
     id="namedview125"
     showgrid="false"
     inkscape:zoom="1.08"
     inkscape:cx="466.66667"
     inkscape:cy="466.66667"
     inkscape:window-x="0"
     inkscape:window-y="0"
     inkscape:window-maximized="0"
     inkscape:current-layer="svg123" />
  <defs
     id="defs53">
    <symbol
       id="q"
       overflow="visible">
      <path
         d="m 27.578,-1.6562 c -1.418,0.74219 -2.8984,1.2969 -4.4375,1.6719 -1.543,0.375 -3.1523,0.5625 -4.8281,0.5625 -5,0 -8.9648,-1.3945 -11.891,-4.1875 -2.918,-2.7891 -4.375,-6.582 -4.375,-11.375 0,-4.7891 1.457,-8.582 4.375,-11.375 2.9258,-2.8008 6.8906,-4.2031 11.891,-4.2031 1.6758,0 3.2852,0.1875 4.8281,0.5625 1.5391,0.375 3.0195,0.93359 4.4375,1.6719 v 6.2188 c -1.4297,-0.97656 -2.8398,-1.6953 -4.2344,-2.1562 -1.3984,-0.45703 -2.8672,-0.6875 -4.4062,-0.6875 -2.7617,0 -4.9336,0.88672 -6.5156,2.6562 -1.5859,1.7734 -2.375,4.2109 -2.375,7.3125 0,3.1055 0.78906,5.543 2.375,7.3125 1.582,1.7617 3.7539,2.6406 6.5156,2.6406 1.5391,0 3.0078,-0.22266 4.4062,-0.67188 1.3945,-0.45703 2.8047,-1.1758 4.2344,-2.1562 z"
         id="path2" />
    </symbol>
    <symbol
       id="i"
       overflow="visible">
      <path
         d="m 20.188,-16.391 c -0.63672,-0.28906 -1.2656,-0.50391 -1.8906,-0.64062 -0.61719,-0.14453 -1.2422,-0.21875 -1.875,-0.21875 -1.8438,0 -3.2656,0.59375 -4.2656,1.7812 -1,1.18745 -1.5,2.8867 -1.5,5.0938 v 10.375 H 3.4537 v -22.516 h 7.2031 v 3.7031 c 0.92578,-1.4766 1.9883,-2.5547 3.1875,-3.2344 1.1953,-0.67578 2.6328,-1.0156 4.3125,-1.0156 0.23828,0 0.5,0.01172 0.78125,0.03125 0.28125,0.02344 0.6875,0.07031 1.2188,0.14062 z"
         id="path5" />
    </symbol>
    <symbol
       id="b"
       overflow="visible">
      <path
         d="m 25.938,-11.312 v 2.0469 H 9.11 c 0.17578,1.6875 0.78516,2.9531 1.8281,3.7969 1.0391,0.84375 2.5,1.2656 4.375,1.2656 1.5195,0 3.0703,-0.22266 4.6562,-0.67188 1.5938,-0.44531 3.2266,-1.1289 4.9062,-2.0469 v 5.5625 c -1.7109,0.63672 -3.418,1.1172 -5.125,1.4375 -1.6992,0.33203 -3.3984,0.5 -5.0938,0.5 -4.0742,0 -7.2422,-1.0312 -9.5,-3.0938 -2.2617,-2.0703 -3.3906,-4.9766 -3.3906,-8.7188 0,-3.6758 1.1094,-6.5664 3.3281,-8.6719 2.2188,-2.1016 5.2695,-3.1562 9.1562,-3.1562 3.5391,0 6.375,1.0703 8.5,3.2031 2.125,2.125 3.1875,4.9766 3.1875,8.5469 z m -7.4062,-2.3906 c 0,-1.375 -0.40234,-2.4766 -1.2031,-3.3125 -0.79297,-0.84375 -1.8281,-1.2656 -3.1094,-1.2656 -1.3984,0 -2.5312,0.39844 -3.4062,1.1875 -0.86719,0.78125 -1.4062,1.9141 -1.625,3.3906 z"
         id="path8" />
    </symbol>
    <symbol
       id="c"
       overflow="visible">
      <path
         d="m 13.547,-10.125 c -1.5,0 -2.6328,0.25781 -3.3906,0.76562 -0.75,0.5 -1.125,1.25 -1.125,2.25 0,0.90625 0.30078,1.6211 0.90625,2.1406 0.61328,0.51172 1.4609,0.76562 2.5469,0.76562 1.3516,0 2.4883,-0.48438 3.4062,-1.4531 0.92578,-0.96875 1.3906,-2.1875 1.3906,-3.6562 v -0.8125 z m 11,-2.7188 V 2e-4 h -7.2656 v -3.3438 c -0.96094,1.375 -2.043,2.375 -3.25,3 -1.2109,0.61328 -2.6797,0.92188 -4.4062,0.92188 -2.3359,0 -4.2305,-0.67578 -5.6875,-2.0312 -1.4492,-1.3633 -2.1719,-3.1289 -2.1719,-5.2969 0,-2.6445 0.90625,-4.582 2.7188,-5.8125 1.8203,-1.2383 4.6758,-1.8594 8.5625,-1.8594 h 4.2344 v -0.5625 c 0,-1.1328 -0.44922,-1.9688 -1.3438,-2.5 -0.89844,-0.53125 -2.2969,-0.79688 -4.2031,-0.79688 -1.543,0 -2.9766,0.15625 -4.2969,0.46875 -1.3242,0.3125 -2.5586,0.77734 -3.7031,1.3906 v -5.4844 c 1.5391,-0.375 3.0859,-0.66016 4.6406,-0.85938 1.5625,-0.19531 3.1172,-0.29688 4.6719,-0.29688 4.0625,0 6.9922,0.80469 8.7969,2.4062 1.8008,1.6055 2.7031,4.2109 2.7031,7.8125 z"
         id="path11" />
    </symbol>
    <symbol
       id="a"
       overflow="visible">
      <path
         d="m 11.312,-28.906 v 6.3906 h 7.4219 v 5.1406 H 11.312 v 9.5625 c 0,1.043 0.20703,1.75 0.625,2.125 0.41406,0.36719 1.2422,0.54688 2.4844,0.54688 h 3.6875 V 1.8e-4 H 11.937 c -2.8438,0 -4.8594,-0.59375 -6.0469,-1.7812 -1.1797,-1.1875 -1.7656,-3.1953 -1.7656,-6.0312 v -9.5625 H 0.5464 v -5.1406 h 3.5781 v -6.3906 z"
         id="path14" />
    </symbol>
    <symbol
       id="h"
       overflow="visible">
      <path
         d="m 18.781,-19.219 v -12.062 h 7.2344 V 0 H 18.781 v -3.25 c -1,1.3242 -2.1016,2.293 -3.2969,2.9062 -1.1875,0.61328 -2.5625,0.92188 -4.125,0.92188 -2.7734,0 -5.0547,-1.0977 -6.8438,-3.2969 -1.7812,-2.207 -2.6719,-5.0469 -2.6719,-8.5156 0,-3.4687 0.89062,-6.3047 2.6719,-8.5156 1.7891,-2.207 4.0703,-3.3125 6.8438,-3.3125 1.5508,0 2.9258,0.3125 4.125,0.9375 1.1953,0.625 2.2969,1.5938 3.2969,2.9062 z m -4.75,14.578 c 1.5391,0 2.7188,-0.5625 3.5312,-1.6875 0.8124,-1.125 1.2188,-2.7578 1.2188,-4.9062 0,-2.1445 -0.40625,-3.7812 -1.2188,-4.9062 -0.81255,-1.125 -1.9922,-1.6875 -3.5312,-1.6875 -1.5312,0 -2.7031,0.5625 -3.5156,1.6875 -0.80469,1.125 -1.2031,2.7617 -1.2031,4.9062 0,2.1484 0.39844,3.7812 1.2031,4.9062 0.8125,1.125 1.9844,1.6875 3.5156,1.6875 z"
         id="path17" />
    </symbol>
    <symbol
       id="g"
       overflow="visible">
      <path
         d="m 15.438,-4.6406 c 1.5391,0 2.7188,-0.5625 3.5312,-1.6875 0.8124,-1.125 1.2188,-2.7578 1.2188,-4.9062 0,-2.1445 -0.40625,-3.7812 -1.2188,-4.9062 -0.81255,-1.125 -1.9922,-1.6875 -3.5312,-1.6875 -1.543,0 -2.7266,0.57031 -3.5469,1.7031 -0.82422,1.125 -1.2344,2.7578 -1.2344,4.8906 0,2.125 0.41016,3.7578 1.2344,4.8906 0.82031,1.1367 2.0039,1.7031 3.5469,1.7031 z m -4.7812,-14.578 c 0.98828,-1.3125 2.0859,-2.2812 3.2969,-2.9062 1.207,-0.625 2.5938,-0.9375 4.1562,-0.9375 2.7812,0 5.0625,1.1055 6.8438,3.3125 1.7812,2.2109 2.6719,5.0469 2.6719,8.5156 0,3.4687 -0.89062,6.3086 -2.6719,8.5156 -1.7812,2.1992 -4.0625,3.2969 -6.8438,3.2969 -1.5625,0 -2.9492,-0.30859 -4.1562,-0.92188 -1.2109,-0.625 -2.3086,-1.5938 -3.2969,-2.9062 v 3.25 H 3.4537 v -31.281 h 7.2031 z"
         id="path20" />
    </symbol>
    <symbol
       id="f"
       overflow="visible">
      <path
         d="m 0.5,-22.516 h 7.2031 l 6.0469,15.281 5.1406,-15.281 h 7.2031 L 16.6249,2.125 c -0.94922,2.5078 -2.0586,4.2656 -3.3281,5.2656 -1.2617,1 -2.9336,1.5 -5.0156,1.5 H 4.125 V 4.1562 h 2.25 c 1.2188,0 2.1016,-0.19531 2.6562,-0.57812 0.5625,-0.38672 0.99219,-1.0859 1.2969,-2.0938 l 0.20312,-0.625 z"
         id="path23" />
    </symbol>
    <symbol
       id="e"
       overflow="visible">
      <path
         d="m 3.7812,-30.016 h 7.7344 v 11.438 h 11.422 V -30.016 H 30.672 V 0 H 22.9376 V -12.719 H 11.5156 V 0 H 3.7812 Z"
         id="path26" />
    </symbol>
    <symbol
       id="p"
       overflow="visible">
      <path
         d="m 2.2344,-14.781 h 12.625 v 5.8594 H 2.2344 Z"
         id="path29" />
    </symbol>
    <symbol
       id="o"
       overflow="visible">
      <path
         d="m 0.20312,-30.016 h 27.656 v 5.8438 h -9.9531 V -2e-4 h -7.7344 v -24.172 h -9.9688 z"
         id="path32" />
    </symbol>
    <symbol
       id="n"
       overflow="visible">
      <path
         d="m 21.656,-21.812 v 5.875 c -0.98047,-0.67578 -1.9648,-1.1719 -2.9531,-1.4844 -0.98047,-0.32031 -2,-0.48438 -3.0625,-0.48438 -2.0117,0 -3.5781,0.58984 -4.7031,1.7656 -1.1172,1.168 -1.6719,2.8047 -1.6719,4.9062 0,2.1055 0.55469,3.7461 1.6719,4.9219 1.125,1.168 2.6914,1.75 4.7031,1.75 1.125,0 2.1914,-0.16406 3.2031,-0.5 1.0078,-0.33203 1.9453,-0.82812 2.8125,-1.4844 v 5.8906 c -1.125,0.40625 -2.2734,0.71094 -3.4375,0.92188 -1.1562,0.20703 -2.3203,0.3125 -3.4844,0.3125 -4.0625,0 -7.2422,-1.0391 -9.5312,-3.125 -2.293,-2.082 -3.4375,-4.9766 -3.4375,-8.6875 0,-3.7188 1.1445,-6.6172 3.4375,-8.7031 2.2891,-2.082 5.4688,-3.125 9.5312,-3.125 1.1758,0 2.3359,0.10547 3.4844,0.3125 1.1445,0.21094 2.2891,0.52344 3.4375,0.9375 z"
         id="path35" />
    </symbol>
    <symbol
       id="d"
       overflow="visible">
      <path
         d="M 26.094,-13.703 V 0 h -7.2344 v -10.453 c 0,-1.9688 -0.04687,-3.3203 -0.14062,-4.0625 -0.08594,-0.73828 -0.23047,-1.2812 -0.4375,-1.625 -0.28125,-0.46875 -0.66797,-0.83203 -1.1562,-1.0938 -0.48047,-0.25781 -1.0273,-0.39062 -1.6406,-0.39062 -1.5,0 -2.6836,0.57812 -3.5469,1.7344 -0.85547,1.1562 -1.2812,2.7617 -1.2812,4.8125 V -2e-5 h -7.2031 v -31.281 h 7.2031 v 12.062 c 1.082,-1.3125 2.2344,-2.2812 3.4531,-2.9062 1.2187,-0.625 2.5664,-0.9375 4.0469,-0.9375 2.5938,0 4.5625,0.79688 5.9062,2.3906 1.3516,1.5938 2.0312,3.918 2.0312,6.9688 z"
         id="path38" />
    </symbol>
    <symbol
       id="m"
       overflow="visible">
      <path
         d="m 18.281,-31.281 v 4.7188 h -3.9844 c -1.0234,0 -1.7344,0.1875 -2.1406,0.5625 -0.39844,0.36719 -0.59375,1.0078 -0.59375,1.9219 v 1.5625 h 6.1562 v 5.1406 h -6.1562 V 3e-4 h -7.2031 v -17.375 h -3.5781 v -5.1406 h 3.5781 v -1.5625 c 0,-2.457 0.67969,-4.2695 2.0469,-5.4375 1.375,-1.1758 3.4922,-1.7656 6.3594,-1.7656 z"
         id="path41" />
    </symbol>
    <symbol
       id="l"
       overflow="visible">
      <path
         d="m 3.7812,-30.016 h 8.6406 l 10.922,20.594 v -20.594 h 7.3281 V 0 H 22.0313 L 11.1253,-20.594 V 0 H 3.7815 Z"
         id="path44" />
    </symbol>
    <symbol
       id="k"
       overflow="visible">
      <path
         d="m 3.7812,-30.016 h 12.844 c 3.8203,0 6.7539,0.85156 8.7969,2.5469 2.0391,1.6992 3.0625,4.1172 3.0625,7.25 0,3.1484 -1.0234,5.5703 -3.0625,7.2656 -2.043,1.6992 -4.9766,2.5469 -8.7969,2.5469 H 11.5158 V -6e-4 H 3.7814 Z m 7.7344,5.6094 v 8.3906 h 4.2812 c 1.5,0 2.6562,-0.36328 3.4688,-1.0938 0.82031,-0.73828 1.2344,-1.7734 1.2344,-3.1094 0,-1.3438 -0.41406,-2.375 -1.2344,-3.0938 -0.8125,-0.72656 -1.9688,-1.0938 -3.4688,-1.0938 z"
         id="path47" />
    </symbol>
    <symbol
       id="j"
       overflow="visible">
      <path
         d="m 3.4531,-22.516 h 7.2031 v 22.109 c 0,3.0195 -0.72656,5.3203 -2.1719,6.9062 C 7.0351,8.093 4.9374,8.8898 2.1874,8.8898 H -1.3595 V 4.1554 h 1.2344 c 1.375,0 2.3125,-0.30859 2.8125,-0.92188 0.50781,-0.61719 0.76562,-1.8281 0.76562,-3.6406 z m 0,-8.7656 h 7.2031 v 5.875 H 3.4531 Z"
         id="path50" />
    </symbol>
  </defs>
  <g
     id="g121"
     transform="translate(-52.211508,6.445567)">
    <path
       d="M 596.23,442.23 485.05,331.05 c 16.469,-30.469 26.352,-65.059 26.352,-102.12 0,-116.94 -95.527,-212.47 -212.47,-212.47 -116.943,0 -212.47,95.531 -212.47,212.47 0,116.939 95.531,212.47 212.47,212.47 37.059,0 71.648,-9.8828 102.12,-26.352 l 111.18,111.18 c 11.531,11.531 26.352,17.293 42,17.293 14.824,0 30.469,-5.7656 42,-17.293 23.062,-23.059 23.062,-60.941 0.004,-84 z M 102.94,228.94 c 0,-107.88 88.117,-196 196,-196 107.88,0 196,88.117 196,196 0,107.88 -88.117,196 -196,196 -107.88,0 -196,-88.117 -196,-196 z m 481.77,285.77 c -16.469,16.469 -43.648,16.469 -60.941,0 L 415.889,406.83 c 23.883,-15.648 44.469,-36.234 60.941,-60.941 l 107.88,107.88 c 16.469,16.469 16.469,44.469 0,60.941 z"
       id="path55" />
    <path
       d="m 218.23,116.12 h -26.352 c -11.531,0 -20.59,9.0586 -20.59,20.59 v 60.117 c 0,11.531 9.0586,20.59 20.59,20.59 l 26.352,-0.004 c 11.531,0 20.59,-9.0586 20.59,-20.59 v -60.117 c 0,-10.703 -9.0586,-20.586 -20.59,-20.586 z m 4.1172,80.707 c 0,2.4688 -1.6484,4.1172 -4.1172,4.1172 h -26.352 c -2.4688,0 -4.1172,-1.6484 -4.1172,-4.1172 V 136.71 c 0,-2.4688 1.6484,-4.1172 4.1172,-4.1172 h 26.352 c 2.4688,0 4.1172,1.6484 4.1172,4.1172 z"
       id="path57" />
    <path
       d="m 275.88,116.12 c -4.9414,0 -8.2344,3.293 -8.2344,8.2344 v 82.352 c 0,4.9414 3.293,8.2344 8.2344,8.2344 4.9414,0 8.2344,-3.293 8.2344,-8.2344 v -82.352 c 0,-4.1172 -3.293,-8.2344 -8.2344,-8.2344 z"
       id="path59" />
    <path
       d="m 360.71,116.12 h -26.352 c -11.531,0 -20.59,9.0586 -20.59,20.59 v 60.117 c 0,11.531 9.0586,20.59 20.59,20.59 h 26.352 c 11.531,0 20.59,-9.0586 20.59,-20.59 V 136.71 c -0.004,-10.707 -9.0625,-20.59 -20.59,-20.59 z m 4.1172,80.707 c 0,2.4688 -1.6484,4.1172 -4.1172,4.1172 h -26.352 c -2.4688,0 -4.1172,-1.6484 -4.1172,-4.1172 V 136.71 c 0,-2.4688 1.6484,-4.1172 4.1172,-4.1172 h 26.352 c 2.4688,0 4.1172,1.6484 4.1172,4.1172 z"
       id="path61" />
    <path
       d="m 418.35,116.12 c -4.9414,0 -8.2344,3.293 -8.2344,8.2344 v 82.352 c 0,4.9414 3.293,8.2344 8.2344,8.2344 4.9414,0 8.2344,-3.293 8.2344,-8.2344 v -82.352 c 0.004,-4.1172 -3.293,-8.2344 -8.2344,-8.2344 z"
       id="path63" />
    <path
       d="m 218.23,240.47 h -26.352 c -11.531,0 -20.59,9.0586 -20.59,20.59 v 60.117 c 0,11.531 9.0586,20.59 20.59,20.59 h 26.352 c 11.531,0 20.59,-9.0586 20.59,-20.59 V 261.06 c 0,-11.527 -9.0586,-20.59 -20.59,-20.59 z m 4.1172,80.707 c 0,2.4688 -1.6484,4.1172 -4.1172,4.1172 h -26.352 c -2.4688,0 -4.1172,-1.6484 -4.1172,-4.1172 V 261.06 c 0,-2.4688 1.6484,-4.1172 4.1172,-4.1172 h 26.352 c 2.4688,0 4.1172,1.6484 4.1172,4.1172 z"
       id="path65" />
    <path
       d="m 275.88,240.47 c -4.9414,0 -8.2344,3.293 -8.2344,8.2344 v 82.352 c 0,4.9414 3.293,8.2344 8.2344,8.2344 4.9414,0 8.2344,-3.293 8.2344,-8.2344 v -82.352 c 0,-4.9375 -3.293,-8.2344 -8.2344,-8.2344 z"
       id="path67" />
    <path
       d="m 360.71,240.47 h -26.352 c -11.531,0 -20.59,9.0586 -20.59,20.59 v 60.117 c 0,11.531 9.0586,20.59 20.59,20.59 h 26.352 c 11.531,0 20.59,-9.0586 20.59,-20.59 V 261.06 c -0.004,-11.527 -9.0625,-20.59 -20.59,-20.59 z m 4.1172,80.707 c 0,2.4688 -1.6484,4.1172 -4.1172,4.1172 h -26.352 c -2.4688,0 -4.1172,-1.6484 -4.1172,-4.1172 V 261.06 c 0,-2.4688 1.6484,-4.1172 4.1172,-4.1172 h 26.352 c 2.4688,0 4.1172,1.6484 4.1172,4.1172 z"
       id="path69" />
    <path
       d="m 418.35,240.47 c -4.9414,0 -8.2344,3.293 -8.2344,8.2344 v 82.352 c 0,4.9414 3.293,8.2344 8.2344,8.2344 4.9414,0 8.2344,-3.293 8.2344,-8.2344 v -82.352 c 0.004,-4.9375 -3.293,-8.2344 -8.2344,-8.2344 z"
       id="path71" />
    <use
       x="70"
       y="683.53125"
       xlink:href="#q"
       id="use73"
       width="100%"
       height="100%" />
    <use
       x="100.21875"
       y="683.53125"
       xlink:href="#i"
       id="use75"
       width="100%"
       height="100%" />
    <use
       x="120.52734"
       y="683.53125"
       xlink:href="#b"
       id="use77"
       width="100%"
       height="100%" />
    <use
       x="148.45312"
       y="683.53125"
       xlink:href="#c"
       id="use79"
       width="100%"
       height="100%" />
    <use
       x="176.23828"
       y="683.53125"
       xlink:href="#a"
       id="use81"
       width="100%"
       height="100%" />
    <use
       x="195.92188"
       y="683.53125"
       xlink:href="#b"
       id="use83"
       width="100%"
       height="100%" />
    <use
       x="223.84766"
       y="683.53125"
       xlink:href="#h"
       id="use85"
       width="100%"
       height="100%" />
    <use
       x="267.66016"
       y="683.53125"
       xlink:href="#g"
       id="use87"
       width="100%"
       height="100%" />
    <use
       x="297.13281"
       y="683.53125"
       xlink:href="#f"
       id="use89"
       width="100%"
       height="100%" />
    <use
       x="338.3125"
       y="683.53125"
       xlink:href="#e"
       id="use91"
       width="100%"
       height="100%" />
    <use
       x="372.77344"
       y="683.53125"
       xlink:href="#c"
       id="use93"
       width="100%"
       height="100%" />
    <use
       x="400.55859"
       y="683.53125"
       xlink:href="#a"
       id="use95"
       width="100%"
       height="100%" />
    <use
       x="420.24219"
       y="683.53125"
       xlink:href="#p"
       id="use97"
       width="100%"
       height="100%" />
    <use
       x="437.33203"
       y="683.53125"
       xlink:href="#o"
       id="use99"
       width="100%"
       height="100%" />
    <use
       x="465.41797"
       y="683.53125"
       xlink:href="#b"
       id="use101"
       width="100%"
       height="100%" />
    <use
       x="493.34375"
       y="683.53125"
       xlink:href="#n"
       id="use103"
       width="100%"
       height="100%" />
    <use
       x="517.75391"
       y="683.53125"
       xlink:href="#d"
       id="use105"
       width="100%"
       height="100%" />
    <use
       x="70"
       y="724.70703"
       xlink:href="#m"
       id="use107"
       width="100%"
       height="100%" />
    <use
       x="193.75"
       y="724.70703"
       xlink:href="#a"
       id="use109"
       width="100%"
       height="100%" />
    <use
       x="213.43359"
       y="724.70703"
       xlink:href="#d"
       id="use111"
       width="100%"
       height="100%" />
    <use
       x="285.01172"
       y="724.70703"
       xlink:href="#l"
       id="use113"
       width="100%"
       height="100%" />
    <use
       x="420.72266"
       y="724.70703"
       xlink:href="#k"
       id="use115"
       width="100%"
       height="100%" />
    <use
       x="499.49609"
       y="724.70703"
       xlink:href="#j"
       id="use117"
       width="100%"
       height="100%" />
    <use
       x="565.94531"
       y="724.70703"
       xlink:href="#a"
       id="use119"
       width="100%"
       height="100%" />
  </g>
</svg>
