<?xml version="1.0" encoding="UTF-8"?>
<svg width="700pt" height="700pt" version="1.1" viewBox="0 0 700 700" xmlns="http://www.w3.org/2000/svg" xmlns:xlink="http://www.w3.org/1999/xlink">
 <defs>
  <symbol id="q" overflow="visible">
   <path d="m27.578-1.6562c-1.418 0.74219-2.8984 1.2969-4.4375 1.6719-1.543 0.375-3.1523 0.5625-4.8281 0.5625-5 0-8.9648-1.3945-11.891-4.1875-2.918-2.7891-4.375-6.582-4.375-11.375 0-4.7891 1.457-8.582 4.375-11.375 2.9258-2.8008 6.8906-4.2031 11.891-4.2031 1.6758 0 3.2852 0.1875 4.8281 0.5625 1.5391 0.375 3.0195 0.93359 4.4375 1.6719v6.2188c-1.4297-0.97656-2.8398-1.6953-4.2344-2.1562-1.3984-0.45703-2.8672-0.6875-4.4062-0.6875-2.7617 0-4.9336 0.88672-6.5156 2.6562-1.5859 1.7734-2.375 4.2109-2.375 7.3125 0 3.1055 0.78906 5.543 2.375 7.3125 1.582 1.7617 3.7539 2.6406 6.5156 2.6406 1.5391 0 3.0078-0.22266 4.4062-0.67188 1.3945-0.45703 2.8047-1.1758 4.2344-2.1562z"/>
  </symbol>
  <symbol id="i" overflow="visible">
   <path d="m20.188-16.391c-0.63672-0.28906-1.2656-0.50391-1.8906-0.64062-0.61719-0.14453-1.2422-0.21875-1.875-0.21875-1.8438 0-3.2656 0.59375-4.2656 1.7812s-1.5 2.8867-1.5 5.0938v10.375h-7.2031v-22.516h7.2031v3.7031c0.92578-1.4766 1.9883-2.5547 3.1875-3.2344 1.1953-0.67578 2.6328-1.0156 4.3125-1.0156 0.23828 0 0.5 0.011719 0.78125 0.03125 0.28125 0.023438 0.6875 0.070312 1.2188 0.14062z"/>
  </symbol>
  <symbol id="b" overflow="visible">
   <path d="m25.938-11.312v2.0469h-16.828c0.17578 1.6875 0.78516 2.9531 1.8281 3.7969 1.0391 0.84375 2.5 1.2656 4.375 1.2656 1.5195 0 3.0703-0.22266 4.6562-0.67188 1.5938-0.44531 3.2266-1.1289 4.9062-2.0469v5.5625c-1.7109 0.63672-3.418 1.1172-5.125 1.4375-1.6992 0.33203-3.3984 0.5-5.0938 0.5-4.0742 0-7.2422-1.0312-9.5-3.0938-2.2617-2.0703-3.3906-4.9766-3.3906-8.7188 0-3.6758 1.1094-6.5664 3.3281-8.6719 2.2188-2.1016 5.2695-3.1562 9.1562-3.1562 3.5391 0 6.375 1.0703 8.5 3.2031 2.125 2.125 3.1875 4.9766 3.1875 8.5469zm-7.4062-2.3906c0-1.375-0.40234-2.4766-1.2031-3.3125-0.79297-0.84375-1.8281-1.2656-3.1094-1.2656-1.3984 0-2.5312 0.39844-3.4062 1.1875-0.86719 0.78125-1.4062 1.9141-1.625 3.3906z"/>
  </symbol>
  <symbol id="c" overflow="visible">
   <path d="m13.547-10.125c-1.5 0-2.6328 0.25781-3.3906 0.76562-0.75 0.5-1.125 1.25-1.125 2.25 0 0.90625 0.30078 1.6211 0.90625 2.1406 0.61328 0.51172 1.4609 0.76562 2.5469 0.76562 1.3516 0 2.4883-0.48438 3.4062-1.4531 0.92578-0.96875 1.3906-2.1875 1.3906-3.6562v-0.8125zm11-2.7188v12.844h-7.2656v-3.3438c-0.96094 1.375-2.043 2.375-3.25 3-1.2109 0.61328-2.6797 0.92188-4.4062 0.92188-2.3359 0-4.2305-0.67578-5.6875-2.0312-1.4492-1.3633-2.1719-3.1289-2.1719-5.2969 0-2.6445 0.90625-4.582 2.7188-5.8125 1.8203-1.2383 4.6758-1.8594 8.5625-1.8594h4.2344v-0.5625c0-1.1328-0.44922-1.9688-1.3438-2.5-0.89844-0.53125-2.2969-0.79688-4.2031-0.79688-1.543 0-2.9766 0.15625-4.2969 0.46875-1.3242 0.3125-2.5586 0.77734-3.7031 1.3906v-5.4844c1.5391-0.375 3.0859-0.66016 4.6406-0.85938 1.5625-0.19531 3.1172-0.29688 4.6719-0.29688 4.0625 0 6.9922 0.80469 8.7969 2.4062 1.8008 1.6055 2.7031 4.2109 2.7031 7.8125z"/>
  </symbol>
  <symbol id="a" overflow="visible">
   <path d="m11.312-28.906v6.3906h7.4219v5.1406h-7.4219v9.5625c0 1.043 0.20703 1.75 0.625 2.125 0.41406 0.36719 1.2422 0.54688 2.4844 0.54688h3.6875v5.1406h-6.1719c-2.8438 0-4.8594-0.59375-6.0469-1.7812-1.1797-1.1875-1.7656-3.1953-1.7656-6.0312v-9.5625h-3.5781v-5.1406h3.5781v-6.3906z"/>
  </symbol>
  <symbol id="h" overflow="visible">
   <path d="m18.781-19.219v-12.062h7.2344v31.281h-7.2344v-3.25c-1 1.3242-2.1016 2.293-3.2969 2.9062-1.1875 0.61328-2.5625 0.92188-4.125 0.92188-2.7734 0-5.0547-1.0977-6.8438-3.2969-1.7812-2.207-2.6719-5.0469-2.6719-8.5156s0.89062-6.3047 2.6719-8.5156c1.7891-2.207 4.0703-3.3125 6.8438-3.3125 1.5508 0 2.9258 0.3125 4.125 0.9375 1.1953 0.625 2.2969 1.5938 3.2969 2.9062zm-4.75 14.578c1.5391 0 2.7188-0.5625 3.5312-1.6875s1.2188-2.7578 1.2188-4.9062c0-2.1445-0.40625-3.7812-1.2188-4.9062s-1.9922-1.6875-3.5312-1.6875c-1.5312 0-2.7031 0.5625-3.5156 1.6875-0.80469 1.125-1.2031 2.7617-1.2031 4.9062 0 2.1484 0.39844 3.7812 1.2031 4.9062 0.8125 1.125 1.9844 1.6875 3.5156 1.6875z"/>
  </symbol>
  <symbol id="g" overflow="visible">
   <path d="m15.438-4.6406c1.5391 0 2.7188-0.5625 3.5312-1.6875s1.2188-2.7578 1.2188-4.9062c0-2.1445-0.40625-3.7812-1.2188-4.9062s-1.9922-1.6875-3.5312-1.6875c-1.543 0-2.7266 0.57031-3.5469 1.7031-0.82422 1.125-1.2344 2.7578-1.2344 4.8906 0 2.125 0.41016 3.7578 1.2344 4.8906 0.82031 1.1367 2.0039 1.7031 3.5469 1.7031zm-4.7812-14.578c0.98828-1.3125 2.0859-2.2812 3.2969-2.9062 1.207-0.625 2.5938-0.9375 4.1562-0.9375 2.7812 0 5.0625 1.1055 6.8438 3.3125 1.7812 2.2109 2.6719 5.0469 2.6719 8.5156s-0.89062 6.3086-2.6719 8.5156c-1.7812 2.1992-4.0625 3.2969-6.8438 3.2969-1.5625 0-2.9492-0.30859-4.1562-0.92188-1.2109-0.625-2.3086-1.5938-3.2969-2.9062v3.25h-7.2031v-31.281h7.2031z"/>
  </symbol>
  <symbol id="f" overflow="visible">
   <path d="m0.5-22.516h7.2031l6.0469 15.281 5.1406-15.281h7.2031l-9.4688 24.641c-0.94922 2.5078-2.0586 4.2656-3.3281 5.2656-1.2617 1-2.9336 1.5-5.0156 1.5h-4.1562v-4.7344h2.25c1.2188 0 2.1016-0.19531 2.6562-0.57812 0.5625-0.38672 0.99219-1.0859 1.2969-2.0938l0.20312-0.625z"/>
  </symbol>
  <symbol id="e" overflow="visible">
   <path d="m3.7812-30.016h7.7344v11.438h11.422v-11.438h7.7344v30.016h-7.7344v-12.719h-11.422v12.719h-7.7344z"/>
  </symbol>
  <symbol id="p" overflow="visible">
   <path d="m2.2344-14.781h12.625v5.8594h-12.625z"/>
  </symbol>
  <symbol id="o" overflow="visible">
   <path d="m0.20312-30.016h27.656v5.8438h-9.9531v24.172h-7.7344v-24.172h-9.9688z"/>
  </symbol>
  <symbol id="n" overflow="visible">
   <path d="m21.656-21.812v5.875c-0.98047-0.67578-1.9648-1.1719-2.9531-1.4844-0.98047-0.32031-2-0.48438-3.0625-0.48438-2.0117 0-3.5781 0.58984-4.7031 1.7656-1.1172 1.168-1.6719 2.8047-1.6719 4.9062 0 2.1055 0.55469 3.7461 1.6719 4.9219 1.125 1.168 2.6914 1.75 4.7031 1.75 1.125 0 2.1914-0.16406 3.2031-0.5 1.0078-0.33203 1.9453-0.82812 2.8125-1.4844v5.8906c-1.125 0.40625-2.2734 0.71094-3.4375 0.92188-1.1562 0.20703-2.3203 0.3125-3.4844 0.3125-4.0625 0-7.2422-1.0391-9.5312-3.125-2.293-2.082-3.4375-4.9766-3.4375-8.6875 0-3.7188 1.1445-6.6172 3.4375-8.7031 2.2891-2.082 5.4688-3.125 9.5312-3.125 1.1758 0 2.3359 0.10547 3.4844 0.3125 1.1445 0.21094 2.2891 0.52344 3.4375 0.9375z"/>
  </symbol>
  <symbol id="d" overflow="visible">
   <path d="m26.094-13.703v13.703h-7.2344v-10.453c0-1.9688-0.046875-3.3203-0.14062-4.0625-0.085938-0.73828-0.23047-1.2812-0.4375-1.625-0.28125-0.46875-0.66797-0.83203-1.1562-1.0938-0.48047-0.25781-1.0273-0.39062-1.6406-0.39062-1.5 0-2.6836 0.57812-3.5469 1.7344-0.85547 1.1562-1.2812 2.7617-1.2812 4.8125v11.078h-7.2031v-31.281h7.2031v12.062c1.082-1.3125 2.2344-2.2812 3.4531-2.9062s2.5664-0.9375 4.0469-0.9375c2.5938 0 4.5625 0.79688 5.9062 2.3906 1.3516 1.5938 2.0312 3.918 2.0312 6.9688z"/>
  </symbol>
  <symbol id="m" overflow="visible">
   <path d="m18.281-31.281v4.7188h-3.9844c-1.0234 0-1.7344 0.1875-2.1406 0.5625-0.39844 0.36719-0.59375 1.0078-0.59375 1.9219v1.5625h6.1562v5.1406h-6.1562v17.375h-7.2031v-17.375h-3.5781v-5.1406h3.5781v-1.5625c0-2.457 0.67969-4.2695 2.0469-5.4375 1.375-1.1758 3.4922-1.7656 6.3594-1.7656z"/>
  </symbol>
  <symbol id="l" overflow="visible">
   <path d="m3.7812-30.016h8.6406l10.922 20.594v-20.594h7.3281v30.016h-8.6406l-10.906-20.594v20.594h-7.3438z"/>
  </symbol>
  <symbol id="k" overflow="visible">
   <path d="m3.7812-30.016h12.844c3.8203 0 6.7539 0.85156 8.7969 2.5469 2.0391 1.6992 3.0625 4.1172 3.0625 7.25 0 3.1484-1.0234 5.5703-3.0625 7.2656-2.043 1.6992-4.9766 2.5469-8.7969 2.5469h-5.1094v10.406h-7.7344zm7.7344 5.6094v8.3906h4.2812c1.5 0 2.6562-0.36328 3.4688-1.0938 0.82031-0.73828 1.2344-1.7734 1.2344-3.1094 0-1.3438-0.41406-2.375-1.2344-3.0938-0.8125-0.72656-1.9688-1.0938-3.4688-1.0938z"/>
  </symbol>
  <symbol id="j" overflow="visible">
   <path d="m3.4531-22.516h7.2031v22.109c0 3.0195-0.72656 5.3203-2.1719 6.9062-1.4492 1.5938-3.5469 2.3906-6.2969 2.3906h-3.5469v-4.7344h1.2344c1.375 0 2.3125-0.30859 2.8125-0.92188 0.50781-0.61719 0.76562-1.8281 0.76562-3.6406zm0-8.7656h7.2031v5.875h-7.2031z"/>
  </symbol>
 </defs>
 <g>
  <path d="m596.23 442.23-111.18-111.18c16.469-30.469 26.352-65.059 26.352-102.12 0-116.94-95.527-212.47-212.47-212.47s-212.47 95.531-212.47 212.47 95.531 212.47 212.47 212.47c37.059 0 71.648-9.8828 102.12-26.352l111.18 111.18c11.531 11.531 26.352 17.293 42 17.293 14.824 0 30.469-5.7656 42-17.293 23.062-23.059 23.062-60.941 0.003906-84zm-493.29-213.29c0-107.88 88.117-196 196-196 107.88 0 196 88.117 196 196 0 107.88-88.117 196-196 196-107.88 0-196-88.117-196-196zm481.77 285.77c-16.469 16.469-43.648 16.469-60.941 0l-107.88-107.88c23.883-15.648 44.469-36.234 60.941-60.941l107.88 107.88c16.469 16.469 16.469 44.469 0 60.941z"/>
  <path d="m218.23 116.12h-26.352c-11.531 0-20.59 9.0586-20.59 20.59v60.117c0 11.531 9.0586 20.59 20.59 20.59l26.352-0.003906c11.531 0 20.59-9.0586 20.59-20.59v-60.117c0-10.703-9.0586-20.586-20.59-20.586zm4.1172 80.707c0 2.4688-1.6484 4.1172-4.1172 4.1172h-26.352c-2.4688 0-4.1172-1.6484-4.1172-4.1172v-60.117c0-2.4688 1.6484-4.1172 4.1172-4.1172h26.352c2.4688 0 4.1172 1.6484 4.1172 4.1172z"/>
  <path d="m275.88 116.12c-4.9414 0-8.2344 3.293-8.2344 8.2344v82.352c0 4.9414 3.293 8.2344 8.2344 8.2344 4.9414 0 8.2344-3.293 8.2344-8.2344v-82.352c0-4.1172-3.293-8.2344-8.2344-8.2344z"/>
  <path d="m360.71 116.12h-26.352c-11.531 0-20.59 9.0586-20.59 20.59v60.117c0 11.531 9.0586 20.59 20.59 20.59h26.352c11.531 0 20.59-9.0586 20.59-20.59v-60.117c-0.003906-10.707-9.0625-20.59-20.59-20.59zm4.1172 80.707c0 2.4688-1.6484 4.1172-4.1172 4.1172h-26.352c-2.4688 0-4.1172-1.6484-4.1172-4.1172v-60.117c0-2.4688 1.6484-4.1172 4.1172-4.1172h26.352c2.4688 0 4.1172 1.6484 4.1172 4.1172z"/>
  <path d="m418.35 116.12c-4.9414 0-8.2344 3.293-8.2344 8.2344v82.352c0 4.9414 3.293 8.2344 8.2344 8.2344 4.9414 0 8.2344-3.293 8.2344-8.2344v-82.352c0.003906-4.1172-3.293-8.2344-8.2344-8.2344z"/>
  <path d="m218.23 240.47h-26.352c-11.531 0-20.59 9.0586-20.59 20.59v60.117c0 11.531 9.0586 20.59 20.59 20.59h26.352c11.531 0 20.59-9.0586 20.59-20.59v-60.117c0-11.527-9.0586-20.59-20.59-20.59zm4.1172 80.707c0 2.4688-1.6484 4.1172-4.1172 4.1172h-26.352c-2.4688 0-4.1172-1.6484-4.1172-4.1172v-60.117c0-2.4688 1.6484-4.1172 4.1172-4.1172h26.352c2.4688 0 4.1172 1.6484 4.1172 4.1172z"/>
  <path d="m275.88 240.47c-4.9414 0-8.2344 3.293-8.2344 8.2344v82.352c0 4.9414 3.293 8.2344 8.2344 8.2344 4.9414 0 8.2344-3.293 8.2344-8.2344v-82.352c0-4.9375-3.293-8.2344-8.2344-8.2344z"/>
  <path d="m360.71 240.47h-26.352c-11.531 0-20.59 9.0586-20.59 20.59v60.117c0 11.531 9.0586 20.59 20.59 20.59h26.352c11.531 0 20.59-9.0586 20.59-20.59v-60.117c-0.003906-11.527-9.0625-20.59-20.59-20.59zm4.1172 80.707c0 2.4688-1.6484 4.1172-4.1172 4.1172h-26.352c-2.4688 0-4.1172-1.6484-4.1172-4.1172v-60.117c0-2.4688 1.6484-4.1172 4.1172-4.1172h26.352c2.4688 0 4.1172 1.6484 4.1172 4.1172z"/>
  <path d="m418.35 240.47c-4.9414 0-8.2344 3.293-8.2344 8.2344v82.352c0 4.9414 3.293 8.2344 8.2344 8.2344 4.9414 0 8.2344-3.293 8.2344-8.2344v-82.352c0.003906-4.9375-3.293-8.2344-8.2344-8.2344z"/>
  <use x="70" y="683.53125" xlink:href="#q"/>
  <use x="100.21875" y="683.53125" xlink:href="#i"/>
  <use x="120.527344" y="683.53125" xlink:href="#b"/>
  <use x="148.453125" y="683.53125" xlink:href="#c"/>
  <use x="176.238281" y="683.53125" xlink:href="#a"/>
  <use x="195.921875" y="683.53125" xlink:href="#b"/>
  <use x="223.847656" y="683.53125" xlink:href="#h"/>
  <use x="267.660156" y="683.53125" xlink:href="#g"/>
  <use x="297.132812" y="683.53125" xlink:href="#f"/>
  <use x="338.3125" y="683.53125" xlink:href="#e"/>
  <use x="372.773438" y="683.53125" xlink:href="#c"/>
  <use x="400.558594" y="683.53125" xlink:href="#a"/>
  <use x="420.242188" y="683.53125" xlink:href="#p"/>
  <use x="437.332031" y="683.53125" xlink:href="#o"/>
  <use x="465.417969" y="683.53125" xlink:href="#b"/>
  <use x="493.34375" y="683.53125" xlink:href="#n"/>
  <use x="517.753906" y="683.53125" xlink:href="#d"/>
  <use x="70" y="724.707031" xlink:href="#m"/>
  <use x="193.75" y="724.707031" xlink:href="#a"/>
  <use x="213.433594" y="724.707031" xlink:href="#d"/>
  <use x="285.011719" y="724.707031" xlink:href="#l"/>
  <use x="420.722656" y="724.707031" xlink:href="#k"/>
  <use x="499.496094" y="724.707031" xlink:href="#j"/>
  <use x="565.945312" y="724.707031" xlink:href="#a"/>
 </g>
</svg>
