<svg xmlns="http://www.w3.org/2000/svg" xmlns:xlink="http://www.w3.org/1999/xlink" version="1.1" x="0px" y="0px" viewBox="0 0 100 100" style="enable-background:new 0 0 100 100;" xml:space="preserve"><path d="M50,29c-5,0-9-4-9-9s4-9,9-9c5,0,9,4,9,9S55,29,50,29z M50,15c-2.8,0-5,2.2-5,5s2.2,5,5,5s5-2.2,5-5S52.8,15,50,15z"/><path d="M50,59c-5,0-9-4-9-9s4-9,9-9c5,0,9,4,9,9S55,59,50,59z M50,45c-2.8,0-5,2.2-5,5s2.2,5,5,5s5-2.2,5-5S52.8,45,50,45z"/><path d="M50,89c-5,0-9-4-9-9s4-9,9-9c5,0,9,4,9,9S55,89,50,89z M50,75c-2.8,0-5,2.2-5,5s2.2,5,5,5s5-2.2,5-5S52.8,75,50,75z"/><text x="0" y="115" fill="#000000" font-size="5px" font-weight="bold" font-family="'Helvetica Neue', Helvetica, Arial-Unicode, Arial, Sans-serif">Created by Blair Adams</text><text x="0" y="120" fill="#000000" font-size="5px" font-weight="bold" font-family="'Helvetica Neue', Helvetica, Arial-Unicode, Arial, Sans-serif">from the Noun Project</text></svg>
